<svg xmlns="http://www.w3.org/2000/svg" width="207" height="192" fill="none"><path fill-rule="evenodd" clip-rule="evenodd" d="M102.739 15.604c15.876-.094 25.866 16.3 39.056 25.119 13.921 9.308 35.086 12.022 40.276 27.922 5.19 15.9-7.378 31.939-16.07 46.236-6.992 11.5-18.888 17.786-28.553 27.161-11.952 11.594-18.147 32.333-34.709 34.205-16.412 1.854-29.29-13.966-40.933-25.657-10.068-10.11-17.545-22.336-20.706-36.236-2.951-12.982-.33-26.083 3.65-38.789 4.023-12.847 9.9-24.697 19.267-34.382 11.019-11.394 22.855-25.485 38.722-25.58Zm78.748-11.167a3.048 3.048 0 0 0-4.304 0L165.8 15.797l-11.383-11.36a3.049 3.049 0 0 0-4.305 0 3.034 3.034 0 0 0 0 4.296l11.383 11.36-11.383 11.359a3.034 3.034 0 0 0 0 4.295 3.049 3.049 0 0 0 4.305 0L165.8 24.388l11.383 11.36a3.048 3.048 0 0 0 4.304 0 3.032 3.032 0 0 0 0-4.296l-11.383-11.36 11.383-11.359a3.032 3.032 0 0 0 0-4.296ZM13.659 146.229a2.304 2.304 0 0 1 3.256 0l8.61 8.591 8.61-8.591a2.304 2.304 0 0 1 3.255 0c.9.897.9 2.351 0 3.249l-8.61 8.592 8.61 8.592c.9.897.9 2.352 0 3.249a2.305 2.305 0 0 1-3.255 0l-8.61-8.592-8.61 8.592c-.9.897-2.357.897-3.256 0-.9-.897-.9-2.352 0-3.249l8.61-8.592-8.61-8.592a2.294 2.294 0 0 1 0-3.249Z" fill="#F1F6FD"/><path d="m105.751 90.892-9.213 14.727 69.389 43.23 9.213-14.727-69.389-43.23Z" fill="url(#a)"/><path d="m193.16 155.463-.106.169c-2.899 4.646-8.085 6.652-11.577 4.477l-40.147-24.583 10.54-17.699 40.21 25.281c3.492 2.175 3.979 7.708 1.08 12.355Z" fill="url(#b)"/><path opacity=".12" d="m117.31 118.165 2.518 1.837 22.92-5.934-19.089-12.144-6.349 16.241Z" fill="#000"/><g filter="url(#c)"><path d="M109.639 117.826c14.627-14.597 14.627-38.264 0-52.86-14.627-14.598-38.343-14.598-52.97 0-14.628 14.596-14.628 38.263 0 52.86 14.627 14.597 38.343 14.597 52.97 0Z" fill="url(#d)"/></g><path d="M115.947 120.245c20.447-20.405 20.447-53.488 0-73.892-20.448-20.405-53.599-20.405-74.046 0-20.447 20.404-20.447 53.487 0 73.892 20.447 20.405 53.598 20.405 74.046 0Z" fill="url(#e)"/><path d="M78.919 128.26c24.884 0 45.057-20.131 45.057-44.964s-20.173-44.964-45.057-44.964c-24.885 0-45.058 20.131-45.058 44.964S54.034 128.26 78.92 128.26Z" fill="#C7D4FF"/><path d="M40.325 59.184c8.861-16.068 26.882-21.126 36.392-20.614 9.51.512 19.177-.419 22.68 8.457 2.629 6.663.944 12.517-3.693 17.971-12.13 14.272-21.482 24.353-37.446 37.529-8.966 7.4-15.795 4.259-21.097-2.115-2.638-3.171-7.911-21.142 3.164-41.228Z" fill="#fff" fill-opacity=".2"/><path d="m141.859 134.934 10.032-16.833c.338-.57.19-1.33-.339-1.732l-.169-.126a1.326 1.326 0 0 0-1.926.401l-9.884 16.959c-.359.634-.148 1.457.508 1.795l.022.021a1.31 1.31 0 0 0 1.756-.485Z" fill="#1F2023"/><path d="M122.876 83.614c-.043 10.813-3.979 21.289-11.132 29.399-7.069 8.025-16.889 13.2-27.45 14.699-10.814 1.521-21.967-1.204-30.983-7.244-8.804-5.892-15.217-14.974-18.031-25.133-2.921-10.538-1.715-22.027 3.216-31.785 4.741-9.398 12.89-16.96 22.603-21.014 10.138-4.245 21.65-4.499 32.02-.908 9.99 3.442 18.477 10.623 23.789 19.705 3.936 6.758 5.925 14.488 5.968 22.28 0 1.543 2.412 1.543 2.391 0-.042-10.834-3.788-21.246-10.603-29.672-6.645-8.216-16.19-13.96-26.518-16.178-10.709-2.302-22.031-.697-31.724 4.35-9.312 4.837-16.846 12.968-21.1 22.535-4.445 10.011-5.185 21.437-2.18 31.955 2.9 10.158 9.354 19.05 17.926 25.217 8.804 6.336 19.788 9.313 30.581 8.553 10.709-.739 20.889-5.259 28.74-12.524 9.482-8.786 14.836-21.373 14.878-34.235 0-1.542-2.391-1.542-2.391 0Z" fill="#89A4F8"/><ellipse cx="65.867" cy="84.314" rx="5.696" ry="5.684" fill="#89A4F8"/><ellipse cx="96.792" cy="84.314" rx="5.696" ry="5.684" fill="#89A4F8"/><path d="M74.214 105.082a1.7 1.7 0 0 1 .983-1.563c1.451-.658 4.227-1.772 6.373-1.772 2.147 0 4.923 1.114 6.374 1.772a1.7 1.7 0 0 1 .983 1.563c0 1.473-1.715 2.376-3.027 1.708-1.368-.696-2.977-1.325-4.33-1.325-1.352 0-2.96.629-4.329 1.325-1.312.668-3.027-.235-3.027-1.708Z" fill="#89A4F8"/><rect width="14.706" height="2.923" rx="1.461" transform="rotate(29.949 -81.564 218.634) skewX(-.103)" fill="#89A4F8"/><rect width="14.706" height="2.923" rx="1.461" transform="matrix(-.86647 .49922 .50078 .86558 64.403 69.912)" fill="#89A4F8"/><path d="M40.232 83.075c-.528 1.065-.528 5.326 0 6.923m.527-12.782c.527-11.54 10.024-33.872 43.79-30.89" stroke="#fff" stroke-width="4" stroke-linecap="round" stroke-linejoin="round"/><ellipse cx="33.862" cy="28.413" rx="8.337" ry="8.32" fill="#F1F6FD"/><ellipse cx="145.736" cy="153.759" rx="4.92" ry="4.91" fill="#F1F6FD"/><ellipse cx="146.195" cy="167.564" rx="3.026" ry="3.02" fill="#F1F6FD"/><ellipse cx="51.661" cy="25.003" rx="4.92" ry="4.91" fill="#F1F6FD"/><defs><linearGradient id="a" x1="149.616" y1="114.982" x2="129.364" y2="139.418" gradientUnits="userSpaceOnUse"><stop offset=".007" stop-color="#586FF6"/><stop offset="1" stop-color="#86A0F8"/></linearGradient><linearGradient id="b" x1="179.596" y1="121.383" x2="140.31" y2="122.736" gradientUnits="userSpaceOnUse"><stop offset=".007" stop-color="#586FF6"/><stop offset="1" stop-color="#86A0F8"/></linearGradient><linearGradient id="d" x1="124.241" y1="100.159" x2="42.151" y2="84.42" gradientUnits="userSpaceOnUse"><stop stop-color="#586FF6"/><stop offset="1" stop-color="#89A4F8"/></linearGradient><linearGradient id="e" x1="136.359" y1="95.55" x2="21.607" y2="73.548" gradientUnits="userSpaceOnUse"><stop stop-color="#586FF6"/><stop offset="1" stop-color="#89A4F8"/></linearGradient><filter id="c" x="16.698" y="25.018" width="132.911" height="132.756" filterUnits="userSpaceOnUse" color-interpolation-filters="sRGB"><feFlood flood-opacity="0" result="BackgroundImageFix"/><feBlend in="SourceGraphic" in2="BackgroundImageFix" result="shape"/><feGaussianBlur stdDeviation="14.5" result="effect1_foregroundBlur"/></filter></defs></svg>