<svg width="70" height="69" fill="none" xmlns="http://www.w3.org/2000/svg"><circle cx="35" cy="34.5" r="34.5" fill="#E1F2F5"/><path d="M32.347 21.834A2 2 0 0 1 34.34 20h2.32a2 2 0 0 1 1.993 1.834l.235 2.825a.5.5 0 0 0 .822.34l2.163-1.831a2 2 0 0 1 2.707.112l1.64 1.64a2 2 0 0 1 .112 2.707l-1.83 2.164a.5.5 0 0 0 .34.82l2.824.236A2 2 0 0 1 49.5 32.84v2.32a2 2 0 0 1-1.834 1.993l-2.825.235a.5.5 0 0 0-.34.822l1.831 2.163a2 2 0 0 1-.112 2.706l-1.64 1.64a2 2 0 0 1-2.707.113l-2.163-1.83a.5.5 0 0 0-.822.34l-.235 2.824A2 2 0 0 1 36.66 48h-2.32a2 2 0 0 1-1.993-1.834l-.235-2.825a.5.5 0 0 0-.822-.34l-2.163 1.831a2 2 0 0 1-2.706-.112l-1.64-1.64a2 2 0 0 1-.113-2.707l1.83-2.163a.5.5 0 0 0-.34-.822l-2.824-.235A2 2 0 0 1 21.5 35.16v-2.32a2 2 0 0 1 1.834-1.993l2.825-.235a.5.5 0 0 0 .34-.821l-1.831-2.164a2 2 0 0 1 .112-2.706l1.64-1.64a2 2 0 0 1 2.707-.113l2.164 1.83a.5.5 0 0 0 .82-.34l.236-2.824ZM40.5 34a5 5 0 1 0-10 0 5 5 0 0 0 10 0Z" fill="#B4ACBC"/><path d="M43.5 34a8 8 0 1 1-16 0 8 8 0 0 1 16 0ZM40 34a4.5 4.5 0 1 0-9 0 4.5 4.5 0 0 0 9 0Z" fill="#998EA4"/><path d="M30 34a5.5 5.5 0 1 1 11 0 5.5 5.5 0 0 1-11 0Zm10.5 0a5 5 0 1 0-10 0 5 5 0 0 0 10 0Z" fill="#CDC4D6"/></svg>