<svg width="20" height="20" fill="none" xmlns="http://www.w3.org/2000/svg"><path d="M13.567 6.367v.449l.446.048c1.095.117 1.801.444 2.248.937.645.726.657 1.726.567 2.532l-.582 4.655-.001.008c-.084.771-.274 1.448-.783 1.944-.505.492-1.415.893-3.137.893h-4.65c-1.722 0-2.632-.4-3.137-.894-.509-.497-.699-1.176-.783-1.95v-.01l-.583-4.637c-.09-.82-.085-1.816.566-2.54.447-.494 1.153-.82 2.249-.938l.446-.048v-.933c0-1.844 1.497-3.536 3.214-3.702a3.54 3.54 0 0 1 2.75.913l.002.002a3.56 3.56 0 0 1 1.168 2.637v.634ZM9.672 2.344h-.003c-.852.081-1.62.55-2.169 1.186-.548.637-.908 1.476-.908 2.353v.934h6.816V5.733a3.402 3.402 0 0 0-3.736-3.39Zm-2.664 9.114h.009c.734 0 1.333-.598 1.333-1.333a1.338 1.338 0 0 0-2.675 0c0 .735.599 1.333 1.333 1.333Zm5.834 0h.008c.735 0 1.333-.598 1.333-1.333a1.338 1.338 0 0 0-2.675 0c0 .735.6 1.333 1.334 1.333Z" fill="#424ebb" stroke="#424ebb"/></svg>
