<svg width="20" height="20" fill="none" xmlns="http://www.w3.org/2000/svg"><path d="M13.567 6.367v.45l.446.047c1.095.117 1.801.444 2.248.937.645.727.657 1.727.567 2.532l-.582 4.655-.001.008c-.084.771-.274 1.448-.783 1.944-.505.493-1.415.894-3.137.894h-4.65c-1.722 0-2.632-.401-3.137-.894-.509-.497-.7-1.176-.783-1.952v-.008l-.583-4.638c-.09-.819-.085-1.815.566-2.54.447-.493 1.153-.82 2.249-.938l.446-.048v-.932c0-1.844 1.497-3.537 3.214-3.703a3.54 3.54 0 0 1 2.75.914l.001.002a3.559 3.559 0 0 1 1.169 2.637v.633ZM9.672 2.344h-.003c-.853.081-1.62.55-2.169 1.186-.548.637-.908 1.477-.908 2.354v.933h6.816V5.734a3.402 3.402 0 0 0-3.736-3.39Zm-2.664 9.115h.009c.734 0 1.333-.6 1.333-1.334a1.338 1.338 0 0 0-2.675 0c0 .735.599 1.334 1.333 1.334Zm5.834 0h.008c.735 0 1.333-.6 1.333-1.334a1.338 1.338 0 0 0-2.675 0c0 .735.6 1.334 1.334 1.334Z" fill="#424ebb" stroke="#424ebb"/></svg>
