<svg width="69" height="69" fill="none" xmlns="http://www.w3.org/2000/svg"><circle cx="34.5" cy="34.5" r="34.5" fill="#E1F2F5"/><path d="M27.5 20a3 3 0 0 0-3 3v2h19v-2a3 3 0 0 0-3-3h-13Zm0 28a3 3 0 0 1-3-3v-2h19v2a3 3 0 0 1-3 3h-13Z" fill="#7167A4"/><path d="M24.5 24h19v20h-19V24Z" fill="#321B41"/><path d="M32 28a1 1 0 0 1 1-1h2a1 1 0 0 1 1 1v2a1 1 0 0 1-1 1h-2a1 1 0 0 1-1-1v-2Zm-5 5a1 1 0 0 1 1-1h2a1 1 0 0 1 1 1v2a1 1 0 0 1-1 1h-2a1 1 0 0 1-1-1v-2Zm6 4a1 1 0 0 0-1 1v2a1 1 0 0 0 1 1h2a1 1 0 0 0 1-1v-2a1 1 0 0 0-1-1h-2Z" fill="#00A6ED"/><path d="M27 28a1 1 0 0 1 1-1h2a1 1 0 0 1 1 1v2a1 1 0 0 1-1 1h-2a1 1 0 0 1-1-1v-2Zm0 10a1 1 0 0 1 1-1h2a1 1 0 0 1 1 1v2a1 1 0 0 1-1 1h-2a1 1 0 0 1-1-1v-2Zm11-6a1 1 0 0 0-1 1v2a1 1 0 0 0 1 1h2a1 1 0 0 0 1-1v-2a1 1 0 0 0-1-1h-2Z" fill="#FF822D"/><path d="m25.58 33.58-4.54-4.13a.518.518 0 0 0-.87.39v1.81c0 .29-.23.52-.52.52h-1.89a.76.76 0 0 0-.76.76v2.08c0 .42.34.76.76.76h1.89c.29 0 .52.23.52.52v1.81c0 .45.54.69.87.39l4.54-4.13c.23-.21.23-.57 0-.78Z" fill="#00A6ED"/><path d="M37 28a1 1 0 0 1 1-1h2a1 1 0 0 1 1 1v2a1 1 0 0 1-1 1h-2a1 1 0 0 1-1-1v-2Zm-5 5a1 1 0 0 1 1-1h2a1 1 0 0 1 1 1v2a1 1 0 0 1-1 1h-2a1 1 0 0 1-1-1v-2Zm6 4a1 1 0 0 0-1 1v2a1 1 0 0 0 1 1h2a1 1 0 0 0 1-1v-2a1 1 0 0 0-1-1h-2Z" fill="#FCD53F"/></svg>