<svg width="19" height="19" fill="none" xmlns="http://www.w3.org/2000/svg"><path d="M9.122 17.93C4.614 17.93.95 14.313.95 9.866c0-4.448 3.664-8.063 8.172-8.063 4.507 0 8.171 3.615 8.171 8.063 0 4.447-3.664 8.062-8.171 8.062Zm0-15c-3.877 0-7.032 3.112-7.032 6.937s3.155 6.937 7.032 6.937c3.876 0 7.03-3.112 7.03-6.937s-3.154-6.938-7.03-6.938Z" fill="#F5A05C"/><path d="M11.942 12.814a.514.514 0 0 1-.289-.082l-2.356-1.388c-.585-.345-1.019-1.102-1.019-1.77V6.5a.57.57 0 0 1 1.14 0v3.075c0 .27.229.668.464.803l2.357 1.387a.557.557 0 0 1 .197.773.587.587 0 0 1-.494.277Z" fill="#F5A05C"/></svg>