<svg width="16" height="16" viewBox="0 0 16 16" fill="none" xmlns="http://www.w3.org/2000/svg">
<path d="M8.00016 15.1666C4.04683 15.1666 0.833496 11.9533 0.833496 7.99992C0.833496 4.04659 4.04683 0.833252 8.00016 0.833252C11.9535 0.833252 15.1668 4.04659 15.1668 7.99992C15.1668 11.9533 11.9535 15.1666 8.00016 15.1666ZM8.00016 1.83325C4.60016 1.83325 1.8335 4.59992 1.8335 7.99992C1.8335 11.3999 4.60016 14.1666 8.00016 14.1666C11.4002 14.1666 14.1668 11.3999 14.1668 7.99992C14.1668 4.59992 11.4002 1.83325 8.00016 1.83325Z" fill="#9EB0B9"/>
<path d="M10.4736 10.6199C10.3869 10.6199 10.3003 10.5999 10.2203 10.5466L8.15359 9.31326C7.64025 9.00659 7.26025 8.33326 7.26025 7.73992V5.00659C7.26025 4.73326 7.48692 4.50659 7.76025 4.50659C8.03359 4.50659 8.26025 4.73326 8.26025 5.00659V7.73992C8.26025 7.97992 8.46025 8.33326 8.66692 8.45326L10.7336 9.68659C10.9736 9.82659 11.0469 10.1333 10.9069 10.3733C10.8069 10.5333 10.6403 10.6199 10.4736 10.6199Z" fill="#9EB0B9"/>
</svg>
