<svg width="20" height="20" viewBox="0 0 20 20" fill="none" xmlns="http://www.w3.org/2000/svg">
<path d="M9.49984 18.9585H6.33317C2.67484 18.9585 1.0415 17.3252 1.0415 13.6668V10.5002C1.0415 6.84183 2.67484 5.2085 6.33317 5.2085H8.83317C9.17484 5.2085 9.45817 5.49183 9.45817 5.8335C9.45817 6.17516 9.17484 6.4585 8.83317 6.4585H6.33317C3.34984 6.4585 2.2915 7.51683 2.2915 10.5002V13.6668C2.2915 16.6502 3.34984 17.7085 6.33317 17.7085H9.49984C12.4832 17.7085 13.5415 16.6502 13.5415 13.6668V11.1668C13.5415 10.8252 13.8248 10.5418 14.1665 10.5418C14.5082 10.5418 14.7915 10.8252 14.7915 11.1668V13.6668C14.7915 17.3252 13.1582 18.9585 9.49984 18.9585Z" fill="url(#paint0_linear_2193_4773)"/>
<path d="M14.1668 11.7916H11.5002C9.1585 11.7916 8.2085 10.8416 8.2085 8.49991V5.83324C8.2085 5.58324 8.3585 5.34991 8.59183 5.25824C8.82516 5.15824 9.09183 5.21658 9.27516 5.39158L14.6085 10.7249C14.7835 10.8999 14.8418 11.1749 14.7418 11.4082C14.6502 11.6416 14.4168 11.7916 14.1668 11.7916ZM9.4585 7.34158V8.49991C9.4585 10.1582 9.84183 10.5416 11.5002 10.5416H12.6585L9.4585 7.34158Z" fill="url(#paint1_linear_2193_4773)"/>
<path d="M12.9998 2.2915H9.6665C9.32484 2.2915 9.0415 2.00817 9.0415 1.6665C9.0415 1.32484 9.32484 1.0415 9.6665 1.0415H12.9998C13.3415 1.0415 13.6248 1.32484 13.6248 1.6665C13.6248 2.00817 13.3415 2.2915 12.9998 2.2915Z" fill="url(#paint2_linear_2193_4773)"/>
<path d="M5.8335 4.7915C5.49183 4.7915 5.2085 4.50817 5.2085 4.1665C5.2085 2.4415 6.6085 1.0415 8.3335 1.0415H10.5168C10.8585 1.0415 11.1418 1.32484 11.1418 1.6665C11.1418 2.00817 10.8585 2.2915 10.5168 2.2915H8.3335C7.30016 2.2915 6.4585 3.13317 6.4585 4.1665C6.4585 4.50817 6.17516 4.7915 5.8335 4.7915Z" fill="url(#paint3_linear_2193_4773)"/>
<path d="M15.9917 14.7915C15.65 14.7915 15.3667 14.5082 15.3667 14.1665C15.3667 13.8248 15.65 13.5415 15.9917 13.5415C16.9417 13.5415 17.7084 12.7665 17.7084 11.8248V6.6665C17.7084 6.32484 17.9917 6.0415 18.3334 6.0415C18.675 6.0415 18.9584 6.32484 18.9584 6.6665V11.8248C18.9584 13.4582 17.625 14.7915 15.9917 14.7915Z" fill="url(#paint4_linear_2193_4773)"/>
<path d="M18.3335 7.29174H15.8335C13.6168 7.29174 12.7085 6.38341 12.7085 4.16674V1.66674C12.7085 1.41674 12.8585 1.18341 13.0918 1.09174C13.3252 0.991739 13.5918 1.05007 13.7752 1.22507L18.7752 6.22507C18.9502 6.40007 19.0085 6.67507 18.9085 6.9084C18.8168 7.14174 18.5835 7.29174 18.3335 7.29174ZM13.9585 3.17507V4.16674C13.9585 5.69174 14.3085 6.04174 15.8335 6.04174H16.8252L13.9585 3.17507Z" fill="url(#paint5_linear_2193_4773)"/>
<defs>
<linearGradient id="paint0_linear_2193_4773" x1="7.9165" y1="5.2085" x2="7.9165" y2="15.0299" gradientUnits="userSpaceOnUse">
<stop stop-color="#A25CFE"/>
<stop offset="1" stop-color="#812EEF"/>
</linearGradient>
<linearGradient id="paint1_linear_2193_4773" x1="11.4995" y1="5.20947" x2="11.4995" y2="9.91097" gradientUnits="userSpaceOnUse">
<stop stop-color="#A25CFE"/>
<stop offset="1" stop-color="#812EEF"/>
</linearGradient>
<linearGradient id="paint2_linear_2193_4773" x1="11.3332" y1="1.0415" x2="11.3332" y2="1.93436" gradientUnits="userSpaceOnUse">
<stop stop-color="#A25CFE"/>
<stop offset="1" stop-color="#812EEF"/>
</linearGradient>
<linearGradient id="paint3_linear_2193_4773" x1="8.17516" y1="1.0415" x2="8.17516" y2="3.72008" gradientUnits="userSpaceOnUse">
<stop stop-color="#A25CFE"/>
<stop offset="1" stop-color="#812EEF"/>
</linearGradient>
<linearGradient id="paint4_linear_2193_4773" x1="17.1625" y1="6.0415" x2="17.1625" y2="12.2915" gradientUnits="userSpaceOnUse">
<stop stop-color="#A25CFE"/>
<stop offset="1" stop-color="#812EEF"/>
</linearGradient>
<linearGradient id="paint5_linear_2193_4773" x1="15.8329" y1="1.04297" x2="15.8329" y2="5.50638" gradientUnits="userSpaceOnUse">
<stop stop-color="#A25CFE"/>
<stop offset="1" stop-color="#812EEF"/>
</linearGradient>
</defs>
</svg>
