<svg width="24" height="25" fill="none" xmlns="http://www.w3.org/2000/svg"><path d="M20.5 17.25h-2.25V15c0-.41-.34-.75-.75-.75s-.75.34-.75.75v2.25H14.5c-.41 0-.75.34-.75.75s.34.75.75.75h2.25V21c0 .41.34.75.75.75s.75-.34.75-.75v-2.25h2.25c.41 0 .75-.34.75-.75s-.34-.75-.75-.75Z" fill="#424ebb"/><path d="M19.772 10.74H15.73c-.776 0-1.257-.139-1.546-.395-.28-.248-.434-.657-.434-1.335V4.48c0-.673.153-1.082.435-1.332.29-.257.77-.398 1.545-.398h4.04c.776 0 1.256.141 1.545.398.282.25.435.66.435 1.332v4.54c0 .673-.153 1.081-.434 1.33-.29.256-.77.395-1.544.39Zm-11.5 0H4.23c-.776 0-1.257-.139-1.546-.395-.28-.248-.434-.657-.434-1.335V4.48c0-.673.153-1.082.435-1.332.29-.257.77-.398 1.545-.398h4.04c.775 0 1.256.141 1.545.398.282.25.435.66.435 1.332v4.54c0 .673-.153 1.081-.434 1.33-.29.256-.77.395-1.544.39Z" stroke="#424ebb" stroke-width=".5"/><path d="M10.5 20.27v-4.04c0-1.59-.64-2.23-2.23-2.23H4.23C2.64 14 2 14.64 2 16.23v4.04c0 1.59.64 2.23 2.23 2.23h4.04c1.59 0 2.23-.64 2.23-2.23Z" fill="#424ebb"/></svg>
