<svg width="26" height="24" fill="none" xmlns="http://www.w3.org/2000/svg"><path d="m16.276 7.486.116.234.26.038 7.505 1.08a.436.436 0 0 1 .377.492l-.001.006a.432.432 0 0 1-.129.249l-5.43 5.246-.19.184.045.26 1.283 7.41a.437.437 0 0 1-.363.503.446.446 0 0 1-.282-.043l-.003-.002-6.714-3.498-.23-.12-.232.12-6.713 3.498h-.001a.452.452 0 0 1-.472-.032.437.437 0 0 1-.176-.425v-.001l1.284-7.41.045-.26-.19-.184L.633 9.584a.435.435 0 0 1 .245-.745H.88l7.506-1.081.26-.038.116-.234 3.354-6.74a.454.454 0 0 1 .602-.2h.001a.436.436 0 0 1 .2.198l3.356 6.742Z" fill="#E3E8F8"/></svg>
