<svg width="26" height="27" fill="none" xmlns="http://www.w3.org/2000/svg"><path d="M5.461 14.211a14.11 14.11 0 0 1-.316-.3 16.18 16.18 0 0 1 2.092-1.726c1.51-1.044 3.547-2.05 5.763-2.05 2.216 0 4.253 1.006 5.763 2.049a16.182 16.182 0 0 1 2.092 1.726 16.169 16.169 0 0 1-2.093 1.726c-1.509 1.043-3.546 2.05-5.762 2.05-2.216 0-4.253-1.007-5.762-2.05a16.167 16.167 0 0 1-1.777-1.425Z" stroke="#000"/><circle cx="13.001" cy="13.946" r="2.138" fill="#000"/><path d="M13 7.459v2.4m-6.773.252 1.697 1.698m10.154 0 1.697-1.698" stroke="#000" stroke-linejoin="bevel"/></svg>