<svg width="18" height="18" fill="none" xmlns="http://www.w3.org/2000/svg"><g clip-path="url(#a)" fill="#5DB5BE"><path d="M6.75 9a4.5 4.5 0 1 0 0-9 4.5 4.5 0 0 0 0 9Zm0-7.5a3 3 0 1 1 0 6 3 3 0 0 1 0-6Zm0 9A6.758 6.758 0 0 0 0 17.25a.75.75 0 1 0 1.5 0 5.25 5.25 0 1 1 10.5 0 .75.75 0 1 0 1.5 0 6.758 6.758 0 0 0-6.75-6.75Zm9.75-4.594a1.58 1.58 0 0 0-1.5 1.65 1.58 1.58 0 0 0-1.5-1.65 1.58 1.58 0 0 0-1.5 1.65c0 1.298 1.692 2.818 2.535 3.494a.743.743 0 0 0 .93 0C16.308 10.375 18 8.854 18 7.556a1.58 1.58 0 0 0-1.5-1.65Z"/></g><defs><clipPath id="a"><path fill="#fff" d="M0 0h18v18H0z"/></clipPath></defs></svg>