<svg width="18" height="18" fill="none" xmlns="http://www.w3.org/2000/svg"><g clip-path="url(#a)"><path d="M6.724 18H3a3 3 0 0 1-3-3v-3.75a3 3 0 0 1 3-3h6.643a2.358 2.358 0 0 1 2.017 1.14l2.413-2.652a2.258 2.258 0 0 1 3.19-.15 2.267 2.267 0 0 1 .163 3.173l-5.1 5.727A7.51 7.51 0 0 1 6.724 18ZM3 9.75a1.5 1.5 0 0 0-1.5 1.5V15A1.5 1.5 0 0 0 3 16.5h3.724a6.002 6.002 0 0 0 4.479-2.008l5.104-5.729a.761.761 0 0 0-.054-1.066.772.772 0 0 0-.546-.197.75.75 0 0 0-.526.247L11.863 11.4a2.368 2.368 0 0 1-1.887 1.539l-3.87.553a.75.75 0 0 1-.214-1.485l3.872-.552a.857.857 0 0 0-.12-1.705H3Zm5.25-2.944c-.34 0-.67-.115-.935-.327C6.03 5.448 4.5 3.9 4.5 2.4A2.332 2.332 0 0 1 6.75 0c.56.002 1.098.222 1.5.613.402-.391.94-.61 1.5-.613A2.332 2.332 0 0 1 12 2.4c0 1.5-1.53 3.048-2.816 4.08a1.49 1.49 0 0 1-.934.325ZM6.75 1.5a.836.836 0 0 0-.75.9c0 .675.863 1.792 2.255 2.91C9.636 4.192 10.5 3.074 10.5 2.4a.836.836 0 0 0-.75-.9.836.836 0 0 0-.75.9.75.75 0 0 1-1.5 0 .836.836 0 0 0-.75-.9Z" fill="#5DB5BE"/></g><defs><clipPath id="a"><path fill="#fff" d="M0 0h18v18H0z"/></clipPath></defs></svg>