<svg width="28" height="26" fill="none" xmlns="http://www.w3.org/2000/svg"><path d="M22 9.25h-6c-.41 0-.75-.34-.75-.75s.34-.75.75-.75h6c.41 0 .75.34.75.75s-.34.75-.75.75Zm-16 0H2c-.41 0-.75-.34-.75-.75s.34-.75.75-.75h4c.41 0 .75.34.75.75s-.34.75-.75.75Z" fill="#424ebb"/><path d="M10 12.75A4.26 4.26 0 0 1 5.75 8.5 4.26 4.26 0 0 1 10 4.25a4.26 4.26 0 0 1 4.25 4.25A4.26 4.26 0 0 1 10 12.75Zm0-7c-1.52 0-2.75 1.23-2.75 2.75s1.23 2.75 2.75 2.75 2.75-1.23 2.75-2.75S11.52 5.75 10 5.75Zm12 14.5h-4c-.41 0-.75-.34-.75-.75s.34-.75.75-.75h4c.41 0 .75.34.75.75s-.34.75-.75.75Zm-14 0H2c-.41 0-.75-.34-.75-.75s.34-.75.75-.75h6c.41 0 .75.34.75.75s-.34.75-.75.75Z" fill="#424ebb"/><path d="M14 23.75a4.26 4.26 0 0 1-4.25-4.25A4.26 4.26 0 0 1 14 15.25a4.26 4.26 0 0 1 4.25 4.25A4.26 4.26 0 0 1 14 23.75Zm0-7c-1.52 0-2.75 1.23-2.75 2.75s1.23 2.75 2.75 2.75 2.75-1.23 2.75-2.75-1.23-2.75-2.75-2.75Z" fill="#424ebb"/><circle cx="25" cy="3" r="3" fill="#FE5353"/></svg>
