<svg width="16" height="16" fill="none" xmlns="http://www.w3.org/2000/svg"><path d="M6 7.167A1.832 1.832 0 1 1 6 3.5a1.832 1.832 0 1 1 0 3.667ZM6 4.5a.834.834 0 1 0 0 1.667A.834.834 0 0 0 6 4.5Z" fill="#C4CCD0"/><path d="M10 15.166H6C2.38 15.166.833 13.62.833 10V6C.833 2.38 2.38.833 6 .833h2.667c.273 0 .5.227.5.5s-.227.5-.5.5H6C2.927 1.833 1.833 2.926 1.833 6v4c0 3.073 1.094 4.166 4.167 4.166h4c3.073 0 4.167-1.093 4.167-4.166V6.666c0-.273.226-.5.5-.5.273 0 .5.227.5.5V10c0 3.62-1.547 5.166-5.167 5.166Z" fill="#C4CCD0"/><path d="M14.167 3.833H10.5a.504.504 0 0 1-.5-.5c0-.273.227-.5.5-.5h3.667c.273 0 .5.227.5.5s-.227.5-.5.5Z" fill="#C4CCD0"/><path d="M12.333 5.667a.504.504 0 0 1-.5-.5V1.5c0-.273.227-.5.5-.5.274 0 .5.227.5.5v3.667c0 .273-.226.5-.5.5ZM1.78 13.133a.5.5 0 0 1-.28-.913l3.287-2.207c.72-.48 1.713-.427 2.366.127l.22.193c.334.287.9.287 1.227 0l2.773-2.38a1.99 1.99 0 0 1 2.534 0l1.086.933c.207.18.234.494.054.707a.504.504 0 0 1-.707.053l-1.087-.933c-.333-.287-.9-.287-1.226 0l-2.774 2.38c-.706.607-1.82.607-2.533 0L6.5 10.9a.991.991 0 0 0-1.153-.054l-3.28 2.207a.583.583 0 0 1-.287.08Z" fill="#C4CCD0"/></svg>