<svg width="24" height="24" fill="none" xmlns="http://www.w3.org/2000/svg"><path fill-rule="evenodd" clip-rule="evenodd" d="M24 12.273c0-.851-.078-1.67-.222-2.455H12.245v4.642h6.59c-.284 1.5-1.146 2.771-2.443 3.622v3.011h3.957c2.316-2.09 3.651-5.165 3.651-8.82Z" fill="#4285F4"/><path fill-rule="evenodd" clip-rule="evenodd" d="M12.242 24c3.307 0 6.078-1.074 8.104-2.907l-3.957-3.01c-1.096.72-2.5 1.145-4.147 1.145-3.189 0-5.888-2.111-6.851-4.948H1.3v3.11C3.315 21.31 7.456 24 12.242 24Z" fill="#34A853"/><path fill-rule="evenodd" clip-rule="evenodd" d="M5.393 14.28A7.083 7.083 0 0 1 5.01 12c0-.79.14-1.56.384-2.28V6.61h-4.09a11.8 11.8 0 0 0 0 10.78l4.09-3.11Z" fill="#FBBC05"/><path fill-rule="evenodd" clip-rule="evenodd" d="M12.242 4.773c1.798 0 3.412.605 4.681 1.794l3.513-3.442C18.315 1.19 15.543 0 12.242 0 7.456 0 3.315 2.69 1.3 6.611l4.09 3.11c.964-2.837 3.663-4.948 6.852-4.948Z" fill="#EA4335"/></svg>