<svg width="18" height="19" fill="none" xmlns="http://www.w3.org/2000/svg"><path d="M9 16.909c-.232 0-.457-.032-.645-.102C5.49 15.784.937 12.152.937 6.787c0-2.734 2.123-4.952 4.733-4.952A4.57 4.57 0 0 1 9 3.272a4.57 4.57 0 0 1 3.33-1.437c2.61 0 4.732 2.226 4.732 4.952 0 5.373-4.552 8.997-7.417 10.02-.188.07-.412.102-.645.102ZM5.67 3.007c-1.987 0-3.607 1.695-3.607 3.78 0 5.334 4.927 8.302 6.66 8.919.134.047.427.047.562 0 1.725-.617 6.66-3.577 6.66-8.92 0-2.084-1.62-3.78-3.607-3.78-1.14 0-2.198.555-2.88 1.516a.566.566 0 0 1-.9 0C7.86 3.554 6.81 3.007 5.67 3.007Z" fill="#484848"/></svg>
