<svg width="25" height="24" viewBox="0 0 25 24" fill="none" xmlns="http://www.w3.org/2000/svg">
  <g clip-path="url(#clip0_1856_93)">
    <path fill-rule="evenodd" clip-rule="evenodd" d="M17.9941 3.80103C20.0891 5.02203 21.5631 7.50103 21.4981 10.393C21.4171 14.003 18.6081 17.187 13.8191 20.031C13.1091 20.453 12.3611 21 11.5001 21C10.6551 21 9.87507 20.443 9.18007 20.03C4.39307 17.187 1.58307 14.002 1.50207 10.393C1.43707 7.50103 2.91107 5.02303 5.00607 3.80103C6.96607 2.66003 9.42807 2.65303 11.5001 4.33803C13.5721 2.65303 16.0341 2.65903 17.9941 3.80103ZM16.9871 5.53003C15.5931 4.71803 13.8511 4.74703 12.3431 6.27303C12.2326 6.38424 12.1013 6.4725 11.9566 6.53272C11.8119 6.59295 11.6568 6.62396 11.5001 6.62396C11.3434 6.62396 11.1882 6.59295 11.0435 6.53272C10.8988 6.4725 10.7675 6.38424 10.6571 6.27303C9.14907 4.74703 7.40707 4.71803 6.01307 5.53003C4.56907 6.37203 3.45307 8.15803 3.50207 10.35C3.55807 12.861 5.54207 15.544 10.2021 18.312C10.6101 18.555 11.0361 18.866 11.5001 18.995C11.9641 18.866 12.3901 18.555 12.7981 18.312C17.4581 15.544 19.4421 12.862 19.4981 10.349C19.5481 8.15903 18.4311 6.37203 16.9871 5.53003Z" fill="#424ebb"/>
  </g>
  <defs>
    <clipPath id="clip0_1856_93">
      <rect width="24" height="24" fill="white" transform="translate(0.5)"/>
    </clipPath>
  </defs>
</svg>
