<svg width="32" height="32" fill="none" xmlns="http://www.w3.org/2000/svg"><path fill-rule="evenodd" clip-rule="evenodd" d="M14.672 5.19c5.126-.629 9.84 2.293 11.625 6.788a1.133 1.133 0 1 0 2.107-.837c-2.164-5.45-7.856-8.956-14.008-8.2C7.108 3.835 1.884 10.384 2.77 17.6c.886 7.216 7.54 12.306 14.827 11.412a13.391 13.391 0 0 0 8.343-4.327 1.133 1.133 0 0 0-1.684-1.517 11.124 11.124 0 0 1-6.935 3.594c-6.08.746-11.572-3.498-12.3-9.438-.73-5.94 3.572-11.387 9.651-12.134Z" fill="#EB5757"/><path fill-rule="evenodd" clip-rule="evenodd" d="M29.177 13.104a1.13 1.13 0 0 1-.8.333h-7.928a1.133 1.133 0 0 1 0-2.267h6.794V4.376a1.133 1.133 0 1 1 2.266 0v7.927c0 .3-.119.589-.332.801Z" fill="#EB5757"/></svg>