<svg class="absolute top-[50%] left-[50%] -translate-y-1/2 -translate-x-1/2 opacity-0 transition" width="32" height="32" fill="none" xmlns="http://www.w3.org/2000/svg"><path fill-rule="evenodd" clip-rule="evenodd" d="M12.183 11.412a1.042 1.042 0 0 0 0 2.082 1.042 1.042 0 0 0 0-2.082Zm-3.306 1.04a3.308 3.308 0 1 1 6.616.002 3.308 3.308 0 0 1-6.616-.001Zm12.016 2.805c.979-.267 1.964-.124 2.888.432.685.413 1.28.91 1.816 1.401l.207.193c.225.211.431.412.63.605.35.34.677.656 1.04.971a1.133 1.133 0 0 1-1.489 1.71c-.13-.113-.26-.23-.389-.349a46.299 46.299 0 0 1-.804-.767c-.188-.182-.37-.358-.541-.519-.55-.517-1.071-.96-1.639-1.303-.42-.253-.77-.284-1.124-.187-.4.109-.899.41-1.493 1.004-.421.421-.617.816-.87 1.324a20.93 20.93 0 0 1-.167.331c-.355.693-.856 1.484-2.023 1.934-1.19.46-2.41.015-3.184-.353-.42-.2-.804-.425-1.1-.602-.343-.204-.49-.293-.563-.323-.345-.145-.613-.1-.968.14-.424.285-.83.763-1.305 1.353a283.912 283.912 0 0 1-2.775 3.38 1.133 1.133 0 0 1-1.745-1.447c.365-.44.73-.88 1.092-1.32a256.36 256.36 0 0 0 1.664-2.037l.011-.014c.435-.539 1.043-1.291 1.791-1.796.824-.554 1.897-.858 3.112-.35.23.098.522.273.756.413l.09.054c.292.173.597.351.914.502.7.334 1.146.382 1.393.286.408-.157.573-.366.824-.855.038-.073.077-.154.12-.242.255-.52.624-1.274 1.33-1.98.74-.74 1.57-1.336 2.501-1.59Z" fill="#FFF"/><path d="M10.767 4.21c-2.057 0-3.813.736-5.05 2.063C4.49 7.59 3.858 9.4 3.858 11.415v9.598c0 2.013.63 3.823 1.857 5.142 1.235 1.327 2.992 2.062 5.053 2.062h10.186c2.06 0 3.817-.735 5.053-2.062 1.228-1.319 1.857-3.13 1.857-5.142v-6.02a1.133 1.133 0 0 0-2.267 0v2.097l.208.193c.225.211.431.412.63.605.35.34.677.656 1.04.971a1.133 1.133 0 0 1-1.489 1.71c-.13-.113-.26-.23-.389-.349v.793c0 1.545-.478 2.77-1.249 3.597-.762.819-1.894 1.34-3.395 1.34H10.767c-1.323 0-2.36-.406-3.109-1.063l-.617.745a1.133 1.133 0 0 1-1.745-1.447c.365-.44.73-.88 1.092-1.32a6.253 6.253 0 0 1-.263-1.852v-9.598c0-1.544.48-2.768 1.252-3.597.763-.82 1.895-1.34 3.39-1.34h6.388a1.133 1.133 0 0 0 0-2.267h-6.387Z" fill="#FFF"/><path d="M20.144 7.998h4m4 0h-4m0 0v-4m0 4v4" stroke="#FFF" stroke-width="2.267" stroke-linecap="round"/></svg>