<svg width="16" height="16" viewBox="0 0 16 16" fill="none" xmlns="http://www.w3.org/2000/svg">
<path d="M0.285645 8.00042C0.285645 12.2606 3.73972 15.7147 7.99993 15.7147C12.2601 15.7147 15.7142 12.2606 15.7142 8.00042C15.7142 3.7402 12.2601 0.286133 7.99993 0.286133C3.73972 0.286133 0.285645 3.7402 0.285645 8.00042ZM8.8035 4.14328C8.8035 4.3564 8.71884 4.56079 8.56814 4.71149C8.41744 4.86219 8.21305 4.94685 7.99993 4.94685C7.78681 4.94685 7.58242 4.86219 7.43172 4.71149C7.28102 4.56079 7.19636 4.3564 7.19636 4.14328C7.19636 3.93016 7.28102 3.72576 7.43172 3.57506C7.58242 3.42437 7.78681 3.3397 7.99993 3.3397C8.21305 3.3397 8.41744 3.42437 8.56814 3.57506C8.71884 3.72576 8.8035 3.93016 8.8035 4.14328ZM7.99993 6.07185C8.17043 6.07185 8.33394 6.13958 8.4545 6.26014C8.57506 6.38069 8.64279 6.54421 8.64279 6.7147V11.8576C8.64279 12.0281 8.57506 12.1916 8.4545 12.3121C8.33394 12.4327 8.17043 12.5004 7.99993 12.5004C7.82943 12.5004 7.66592 12.4327 7.54536 12.3121C7.4248 12.1916 7.35707 12.0281 7.35707 11.8576V6.7147C7.35707 6.54421 7.4248 6.38069 7.54536 6.26014C7.66592 6.13958 7.82943 6.07185 7.99993 6.07185Z" fill="#424ebb"/>
</svg>
