<svg width="109" height="261" fill="none" xmlns="http://www.w3.org/2000/svg"><path d="m97.659 48.265.792-.61-.792.61Zm-80.203 90.62.824-.567-.824.567Zm88.424 122.101a.999.999 0 0 0 1.152-.82l1.497-8.875a1.001 1.001 0 0 0-1.973-.332l-1.33 7.889-7.888-1.33a1 1 0 1 0-.333 1.972l8.875 1.496ZM44.08.009c-.877.122-1.74.265-2.587.428l.378 1.964c.813-.157 1.64-.293 2.484-.41L44.08.009Zm-7.592 1.675a43.08 43.08 0 0 0-4.839 1.82l.817 1.826a41.074 41.074 0 0 1 4.614-1.735l-.592-1.91ZM27.065 5.91a39.979 39.979 0 0 0-4.24 2.976l1.252 1.56a37.98 37.98 0 0 1 4.029-2.828l-1.04-1.708Zm-8.062 6.473a42.095 42.095 0 0 0-3.35 3.945l1.601 1.2a40.095 40.095 0 0 1 3.19-3.758l-1.44-1.387Zm-6.202 8.257a48.314 48.314 0 0 0-2.354 4.594l1.826.817a46.323 46.323 0 0 1 2.256-4.405l-1.728-1.006ZM8.58 30.039a56.903 56.903 0 0 0-1.405 4.952l1.946.46a54.931 54.931 0 0 1 1.356-4.779L8.58 30.04ZM6.205 40.04a65.67 65.67 0 0 0-.556 5.106l1.995.14a63.77 63.77 0 0 1 .54-4.951l-1.979-.295Zm-.723 10.235c.007 1.7.075 3.411.203 5.125l1.994-.149a70.668 70.668 0 0 1-.197-4.984l-2 .008Zm.76 10.222c.243 1.686.544 3.37.901 5.047l1.956-.417a74.625 74.625 0 0 1-.877-4.915l-1.98.285ZM8.378 70.52a77.31 77.31 0 0 0 1.561 4.882l1.884-.672a75.14 75.14 0 0 1-1.52-4.756l-1.925.546Zm3.445 9.65a74.585 74.585 0 0 0 2.205 4.629l1.775-.922a72.583 72.583 0 0 1-2.145-4.505l-1.835.797Zm4.727 9.095a70.079 70.079 0 0 0 2.838 4.275l1.624-1.167a68.098 68.098 0 0 1-2.757-4.153l-1.705 1.045Zm5.988 8.328a65.034 65.034 0 0 0 3.456 3.799l1.425-1.403a63.1 63.1 0 0 1-3.35-3.683l-1.53 1.287Zm7.208 7.31a60.678 60.678 0 0 0 4.031 3.188l1.173-1.62a58.84 58.84 0 0 1-3.899-3.083l-1.305 1.515Zm8.32 6.021a58.733 58.733 0 0 0 4.521 2.45l.875-1.798a56.769 56.769 0 0 1-4.366-2.367l-1.03 1.715Zm9.24 4.496a59.583 59.583 0 0 0 4.882 1.628l.55-1.923a57.696 57.696 0 0 1-4.718-1.573l-.714 1.868Zm9.893 2.835c1.652.325 3.34.587 5.064.784l.227-1.987a61.396 61.396 0 0 1-4.904-.76l-.387 1.963Zm10.166 1.168c.86.032 1.727.048 2.603.048v-2c-.851 0-1.694-.016-2.528-.047l-.075 1.999Zm2.603.048c.887 0 1.766-.037 2.638-.11l-.167-1.993c-.816.068-1.64.103-2.471.103v2Zm7.836-.984a33.253 33.253 0 0 0 4.982-1.703l-.794-1.836a31.156 31.156 0 0 1-4.68 1.601l.492 1.938Zm9.634-4.145a38.397 38.397 0 0 0 4.25-3.073l-1.28-1.538a36.32 36.32 0 0 1-4.027 2.913l1.057 1.698Zm8.052-6.67a44.166 44.166 0 0 0 3.33-4.029l-1.614-1.182a42.146 42.146 0 0 1-3.179 3.847l1.463 1.364Zm6.172-8.41A47.81 47.81 0 0 0 104 94.595l-1.834-.797a46.087 46.087 0 0 1-2.241 4.47l1.736.994Zm4.158-9.554a48.338 48.338 0 0 0 1.284-5.056l-1.963-.387a46.257 46.257 0 0 1-1.23 4.847l1.909.596Zm2.012-10.224c.147-1.725.199-3.468.152-5.22l-1.999.054a44.67 44.67 0 0 1-.146 4.996l1.993.17Zm-.285-10.422a44.902 44.902 0 0 0-1.034-5.12l-1.934.51a43.01 43.01 0 0 1 .988 4.891l1.98-.281Zm-2.658-10.09a45.445 45.445 0 0 0-2.186-4.739l-1.765.941a43.167 43.167 0 0 1 2.089 4.53l1.862-.731Zm-4.897-9.2a48.267 48.267 0 0 0-1.54-2.117l-1.585 1.22c.516.67 1.008 1.347 1.476 2.03l1.65-1.133Zm-1.54-2.117a47.243 47.243 0 0 0-1.603-1.972l-1.517 1.303c.523.61 1.035 1.239 1.535 1.889l1.585-1.22Zm-5.077-5.593a43.694 43.694 0 0 0-3.866-3.21l-1.186 1.61a41.676 41.676 0 0 1 3.688 3.063l1.364-1.463Zm-8.08-5.951a43.533 43.533 0 0 0-4.503-2.235l-.784 1.84c1.465.625 2.9 1.335 4.296 2.132l.992-1.737Zm-9.23-3.942a46.854 46.854 0 0 0-4.88-1.18l-.366 1.967c1.58.294 3.14.669 4.673 1.128l.574-1.916Zm-9.853-1.843a52.253 52.253 0 0 0-5.009-.17l.028 2a50.309 50.309 0 0 1 4.817.164l.164-1.994Zm-10.007.128a58.194 58.194 0 0 0-4.95.736l.38 1.964a56.182 56.182 0 0 1 4.778-.711l-.208-1.99Zm-9.815 1.884a62.979 62.979 0 0 0-4.753 1.535l.69 1.878a60.996 60.996 0 0 1 4.601-1.487l-.538-1.926Zm-9.369 3.436a65.733 65.733 0 0 0-4.457 2.248l.968 1.75a63.754 63.754 0 0 1 4.321-2.18l-.832-1.818Zm-8.73 4.827a66.104 66.104 0 0 0-4.068 2.893l1.22 1.585a64.035 64.035 0 0 1 3.945-2.806l-1.097-1.672Zm-7.905 6.087a64.54 64.54 0 0 0-3.582 3.48l1.448 1.379a62.568 62.568 0 0 1 3.471-3.372l-1.337-1.487Zm-6.882 7.229a62.08 62.08 0 0 0-2.993 4.002l1.649 1.132a60.123 60.123 0 0 1 2.896-3.873l-1.552-1.261ZM7.85 62.153a59.851 59.851 0 0 0-2.3 4.44l1.813.845a57.83 57.83 0 0 1 2.223-4.292l-1.736-.993Zm-4.217 9.053a58.883 58.883 0 0 0-1.52 4.758l1.93.527a56.893 56.893 0 0 1 1.468-4.596l-1.878-.689Zm-2.632 9.628a60.074 60.074 0 0 0-.7 4.95l1.99.198a58.07 58.07 0 0 1 .677-4.785l-1.967-.363Zm-.992 9.95a63.91 63.91 0 0 0 .107 4.99l1.996-.121a61.912 61.912 0 0 1-.103-4.834l-2-.036Zm.592 9.935c.219 1.619.5 3.257.843 4.912l1.958-.408a68.564 68.564 0 0 1-.82-4.772l-1.981.268Zm2.03 9.784a80.552 80.552 0 0 0 1.474 4.72l1.89-.655a78.286 78.286 0 0 1-1.438-4.602l-1.927.537Zm3.233 9.36a93.18 93.18 0 0 0 2.04 4.591l1.805-.86a91.163 91.163 0 0 1-1.996-4.493l-1.849.762Zm4.258 8.963a108.094 108.094 0 0 0 2.464 4.335l1.716-1.027a106.264 106.264 0 0 1-2.42-4.256l-1.76.948Zm5.092 8.518c.46.701.933 1.403 1.417 2.107l1.648-1.133a118.92 118.92 0 0 1-1.394-2.073l-1.671 1.099Zm1.417 2.107 1.427 2.074 1.647-1.136c-.474-.687-.95-1.377-1.426-2.071l-1.648 1.133Zm4.273 6.187c.958 1.38 1.91 2.748 2.856 4.103l1.64-1.145a1659.83 1659.83 0 0 1-2.853-4.098l-1.643 1.14Zm5.726 8.2c.968 1.378 1.93 2.743 2.887 4.095l1.633-1.154c-.955-1.351-1.916-2.714-2.884-4.091l-1.636 1.15Zm5.784 8.18c.976 1.372 1.945 2.73 2.909 4.076l1.626-1.164c-.962-1.344-1.93-2.701-2.905-4.071l-1.63 1.159Zm5.828 8.142c.983 1.366 1.96 2.718 2.93 4.058l1.62-1.173c-.97-1.338-1.945-2.689-2.927-4.053l-1.623 1.168Zm5.87 8.107c.99 1.361 1.974 2.708 2.95 4.042l1.615-1.181c-.976-1.333-1.959-2.679-2.948-4.038l-1.617 1.177Zm5.912 8.076a2005.96 2005.96 0 0 0 2.97 4.028l1.608-1.189c-.982-1.329-1.971-2.67-2.967-4.024l-1.611 1.185Zm5.949 8.049a2392.92 2392.92 0 0 0 2.987 4.014l1.603-1.195a2889.52 2889.52 0 0 1-2.984-4.012l-1.606 1.193Zm5.98 8.023c1.008 1.347 2.008 2.682 3 4.004l1.6-1.2c-.992-1.322-1.991-2.656-2.998-4.002l-1.601 1.198Zm6.004 8.003c1.01 1.344 2.013 2.675 3.007 3.995l1.597-1.203-3.006-3.994-1.598 1.202Zm6.016 7.988 3.014 3.997 1.597-1.204-3.014-3.997-1.597 1.204Zm6.025 7.993a7217.59 7217.59 0 0 1 3.008 3.996l1.599-1.202c-.995-1.323-1.998-2.655-3.01-3.997L80 226.399Zm6.01 7.994c1.006 1.342 2.004 2.675 2.993 4.001l1.603-1.197c-.99-1.326-1.99-2.66-2.996-4.003l-1.6 1.199Zm5.98 8.013c1 1.347 1.991 2.686 2.974 4.02l1.61-1.187c-.984-1.335-1.977-2.677-2.978-4.025l-1.606 1.192Zm5.932 8.047a984.078 984.078 0 0 1 2.939 4.039l1.62-1.173a1092.04 1092.04 0 0 0-2.944-4.046l-1.615 1.18Zm5.861 8.096c.485.677.968 1.354 1.45 2.031l1.629-1.16c-.482-.678-.967-1.356-1.453-2.036l-1.626 1.165Z" fill="#424ebb"/></svg>
