<svg width="29" height="28" viewBox="0 0 29 28" fill="none" xmlns="http://www.w3.org/2000/svg">
<path d="M9.59395 16.9758L5.20536 18.9451C4.27139 19.3696 4.27139 20.0648 5.20536 20.4893L13.0592 24.0713C13.9555 24.4794 15.4307 24.4794 16.327 24.0713L24.1809 20.4893C25.1148 20.0648 25.1148 19.3696 24.1809 18.9451L19.9387 16.9036M24.1766 7.90834L16.2506 4.29452C15.3915 3.90183 13.9852 3.90183 13.1261 4.29452L5.20536 7.90834C4.27139 8.33287 4.27139 9.02751 5.20536 9.45204L13.0592 13.034C13.9555 13.4426 15.4307 13.4426 16.327 13.034L24.1809 9.45204C25.1106 9.02751 25.1106 8.33234 24.1766 7.90834Z" stroke="#282828" stroke-width="1.6" stroke-linecap="round" stroke-linejoin="round"/>
<path d="M9.59438 11.4541L5.20048 13.4261C4.26651 13.8506 4.26651 14.5458 5.20048 14.9703L13.0543 18.5517C13.9506 18.9603 15.4258 18.9603 16.3221 18.5517L24.176 14.9703C25.1152 14.5458 25.1152 13.8506 24.1813 13.4261L19.7831 11.4541" stroke="#282828" stroke-width="1.6" stroke-linecap="round" stroke-linejoin="round"/>
</svg>
