<svg width="18" height="19" fill="none" xmlns="http://www.w3.org/2000/svg"><path d="M9 17.57c-1.11 0-2.227-.42-3.097-1.253-2.213-2.13-4.658-5.527-3.735-9.57C3 3.08 6.203 1.437 9 1.437h.008c2.797 0 6 1.643 6.832 5.318.915 4.042-1.53 7.433-3.742 9.563A4.478 4.478 0 0 1 9 17.57ZM9 2.562c-2.182 0-4.987 1.163-5.73 4.433-.81 3.532 1.41 6.577 3.42 8.505a3.32 3.32 0 0 0 4.628 0c2.002-1.928 4.222-4.973 3.427-8.505-.75-3.27-3.563-4.433-5.745-4.433Z" fill="#F5A05C"/><path d="M8.063 10.813a.556.556 0 0 1-.398-.165L6.54 9.523a.566.566 0 0 1 0-.795.566.566 0 0 1 .795 0l.728.727 2.602-2.602a.566.566 0 0 1 .795 0 .566.566 0 0 1 0 .795l-3 3a.556.556 0 0 1-.397.165Z" fill="#F5A05C"/></svg>