<svg width="94" height="36" viewBox="0 0 94 36" fill="none" xmlns="http://www.w3.org/2000/svg">
<path d="M36.1094 16C35.6406 16 35.4062 15.7803 35.4062 15.3408V4.05566C35.4062 3.61621 35.6406 3.39648 36.1094 3.39648H39.0977C41.3477 3.39648 42.8652 3.6748 43.6504 4.23145C44.4414 4.78223 44.8369 5.63184 44.8369 6.78027C44.8369 7.58301 44.541 8.2041 43.9492 8.64355C43.3633 9.08301 42.7949 9.33789 42.2441 9.4082V9.43457C42.7773 9.46973 43.4043 9.73926 44.125 10.2432C44.8457 10.7471 45.2061 11.459 45.2061 12.3789C45.2061 13.457 44.7666 14.3301 43.8877 14.998C43.0088 15.666 41.5586 16 39.5371 16H36.1094ZM37.9727 13.8555H39.2559C40.498 13.8555 41.3418 13.7471 41.7871 13.5303C42.2383 13.3135 42.4639 12.874 42.4639 12.2119C42.4639 11.5908 42.2031 11.1631 41.6816 10.9287C41.166 10.6885 40.3574 10.5684 39.2559 10.5684H37.9727V13.8555ZM37.9727 8.49414H39.124C39.8799 8.49414 40.5859 8.3623 41.2422 8.09863C41.9043 7.83496 42.2354 7.4248 42.2354 6.86816C42.2354 6.43457 42.0508 6.10645 41.6816 5.88379C41.3184 5.65527 40.4658 5.54102 39.124 5.54102H37.9727V8.49414Z" fill="black"/>
<path d="M48.1504 16C47.7402 16 47.5352 15.7803 47.5352 15.3408V4.05566C47.5352 3.61621 47.7402 3.39648 48.1504 3.39648H51.4375C53.5469 3.39648 55.0088 3.73926 55.8232 4.4248C56.6436 5.11035 57.0537 6.08301 57.0537 7.34277C57.0537 8.60254 56.6436 9.5752 55.8232 10.2607C55.0088 10.9463 53.5469 11.2891 51.4375 11.2891H50.1016V15.3408C50.1016 15.7803 49.8965 16 49.4863 16H48.1504ZM50.1016 9.14453H51.4287C52.6006 9.14453 53.3975 9.00684 53.8193 8.73145C54.2412 8.4502 54.4521 7.9873 54.4521 7.34277C54.4521 6.69824 54.2412 6.23828 53.8193 5.96289C53.3975 5.68164 52.6006 5.54102 51.4287 5.54102H50.1016V9.14453Z" fill="black"/>
<path d="M57.9854 16C57.5635 16 57.4258 15.8066 57.5723 15.4199L61.8789 4.1084C62.0605 3.63379 62.3359 3.39648 62.7051 3.39648H63.9355C64.3047 3.39648 64.5801 3.63379 64.7617 4.1084L69.0684 15.4199C69.2148 15.8066 69.0771 16 68.6553 16H67.2578C66.8711 16 66.6016 15.7979 66.4492 15.3936L65.5527 13.0293H61.0879L60.1914 15.3936C60.0391 15.7979 59.7695 16 59.3828 16H57.9854ZM61.9053 10.8496H64.7354L63.6543 8.05469C63.5254 7.72656 63.4463 7.48926 63.417 7.34277C63.3936 7.19043 63.3672 6.96777 63.3379 6.6748H63.3027C63.2734 6.96777 63.2441 7.19043 63.2148 7.34277C63.1914 7.48926 63.1152 7.72656 62.9863 8.05469L61.9053 10.8496Z" fill="black"/>
<path d="M69.2969 7.80859V4.05566C69.2969 3.61621 69.502 3.39648 69.9121 3.39648H71.248C71.6582 3.39648 71.8633 3.61621 71.8633 4.05566V7.38672C71.8633 8.10156 71.9922 8.60254 72.25 8.88965C72.5078 9.17676 72.8623 9.32031 73.3135 9.32031C73.7354 9.32031 74.1309 9.28223 74.5 9.20605C74.875 9.12988 75.3203 8.97168 75.8359 8.73145V4.05566C75.8359 3.61621 76.041 3.39648 76.4512 3.39648H77.7871C78.1973 3.39648 78.4023 3.61621 78.4023 4.05566V15.3408C78.4023 15.7803 78.1973 16 77.7871 16H76.4512C76.041 16 75.8359 15.7803 75.8359 15.3408V11.6846C75.8359 11.333 75.8506 10.9814 75.8799 10.6299H75.8184C75.3965 10.8467 74.8896 11.0283 74.2979 11.1748C73.7061 11.3213 73.1611 11.3945 72.6631 11.3945C71.6377 11.3945 70.8203 11.0371 70.2109 10.3223C69.6016 9.60742 69.2969 8.76953 69.2969 7.80859Z" fill="black"/>
<path d="M81.8301 16C81.4199 16 81.2148 15.7803 81.2148 15.3408V4.05566C81.2148 3.61621 81.4199 3.39648 81.8301 3.39648H83.166C83.5762 3.39648 83.7812 3.61621 83.7812 4.05566V10.9902C83.7812 11.3418 83.7666 11.6934 83.7373 12.0449H83.7988L88.1055 4.01172C88.3281 3.60156 88.709 3.39648 89.248 3.39648H90.9004C91.3105 3.39648 91.5156 3.61621 91.5156 4.05566V15.3408C91.5156 15.7803 91.3105 16 90.9004 16H89.5645C89.1543 16 88.9492 15.7803 88.9492 15.3408V8.40625C88.9492 8.05469 88.9639 7.70312 88.9932 7.35156H88.9316L84.625 15.3848C84.4023 15.7949 84.0215 16 83.4824 16H81.8301Z" fill="black"/>
<path d="M34.4707 26.0986C34.4707 24.5036 34.8626 23.2549 35.6465 22.3525C36.4349 21.4456 37.5697 20.9922 39.0508 20.9922C40.5319 20.9922 41.6644 21.4456 42.4482 22.3525C43.2367 23.2549 43.6309 24.5036 43.6309 26.0986C43.6309 27.6937 43.2367 28.9447 42.4482 29.8516C41.6644 30.7539 40.5319 31.2051 39.0508 31.2051C37.5697 31.2051 36.4349 30.7539 35.6465 29.8516C34.8626 28.9447 34.4707 27.6937 34.4707 26.0986ZM35.8721 26.0986C35.8721 27.3747 36.1341 28.3682 36.6582 29.0791C37.1823 29.7855 37.9798 30.1387 39.0508 30.1387C40.1217 30.1387 40.9193 29.7855 41.4434 29.0791C41.9674 28.3682 42.2295 27.3747 42.2295 26.0986C42.2295 24.8226 41.9674 23.8314 41.4434 23.125C40.9193 22.4141 40.1217 22.0586 39.0508 22.0586C37.9798 22.0586 37.1823 22.4141 36.6582 23.125C36.1341 23.8314 35.8721 24.8226 35.8721 26.0986Z" fill="black"/>
<path d="M45.7637 31C45.5358 31 45.4219 30.8747 45.4219 30.624V21.5732C45.4219 21.3226 45.5358 21.1973 45.7637 21.1973H46.3926C46.6204 21.1973 46.7344 21.3226 46.7344 21.5732V25.3398H51.5059V21.5732C51.5059 21.3226 51.6198 21.1973 51.8477 21.1973H52.4766C52.7044 21.1973 52.8184 21.3226 52.8184 21.5732V30.624C52.8184 30.8747 52.7044 31 52.4766 31H51.8477C51.6198 31 51.5059 30.8747 51.5059 30.624V26.4609H46.7344V30.624C46.7344 30.8747 46.6204 31 46.3926 31H45.7637Z" fill="black"/>
<path d="M54.5205 31.1162C54.3428 31.057 54.2699 30.9521 54.3018 30.8018L54.418 30.2344C54.4499 30.0703 54.5684 30.0179 54.7734 30.0771C54.901 30.1136 55.0697 30.1318 55.2793 30.1318C56.013 30.1318 56.4824 29.5394 56.6875 28.3545C56.8926 27.165 56.9951 25.5928 56.9951 23.6377V21.5732C56.9951 21.3226 57.109 21.1973 57.3369 21.1973H62.6006C62.8285 21.1973 62.9424 21.3226 62.9424 21.5732V30.624C62.9424 30.8747 62.8285 31 62.6006 31H61.9717C61.7438 31 61.6299 30.8747 61.6299 30.624V22.3184H58.1299V24.0205C58.1299 26.8962 57.9157 28.8125 57.4873 29.7695C57.0635 30.7266 56.3799 31.2051 55.4365 31.2051C55.0081 31.2051 54.7028 31.1755 54.5205 31.1162Z" fill="black"/>
<path d="M64.7266 31C64.4896 31 64.4281 30.8496 64.542 30.5488L67.9463 21.6143C68.0511 21.3363 68.2015 21.1973 68.3975 21.1973H69.3545C69.5505 21.1973 69.7008 21.3363 69.8057 21.6143L73.21 30.5488C73.3239 30.8496 73.2624 31 73.0254 31H72.3281C72.0866 31 71.9225 30.8883 71.8359 30.665L70.9814 28.4023H66.7705L65.916 30.665C65.8294 30.8883 65.6654 31 65.4238 31H64.7266ZM67.2012 27.2812H70.5508L69.5049 24.5469C69.4092 24.2917 69.3135 24.0091 69.2178 23.6992C69.1266 23.3893 69.0173 22.9495 68.8896 22.3799H68.8623C68.7347 22.9495 68.623 23.3893 68.5273 23.6992C68.4362 24.0091 68.3428 24.2917 68.2471 24.5469L67.2012 27.2812Z" fill="black"/>
<path d="M74.8574 31C74.6296 31 74.5156 30.8747 74.5156 30.624V21.5732C74.5156 21.3226 74.6296 21.1973 74.8574 21.1973H75.4863C75.7142 21.1973 75.8281 21.3226 75.8281 21.5732V28.6758C75.8281 28.8581 75.8236 29.0404 75.8145 29.2227H75.8418L80.2168 21.5391C80.3444 21.3112 80.5723 21.1973 80.9004 21.1973H81.7754C82.0033 21.1973 82.1172 21.3226 82.1172 21.5732V30.624C82.1172 30.8747 82.0033 31 81.7754 31H81.1465C80.9186 31 80.8047 30.8747 80.8047 30.624V23.5215C80.8047 23.3392 80.8092 23.1569 80.8184 22.9746H80.791L76.416 30.6582C76.2884 30.8861 76.0605 31 75.7324 31H74.8574ZM75.6777 18.5654C75.6595 18.3467 75.7689 18.2373 76.0059 18.2373H76.5596C76.751 18.2373 76.8626 18.3467 76.8945 18.5654L76.9287 18.8115C76.9561 19.0257 77.0905 19.1921 77.332 19.3105C77.5781 19.429 77.9062 19.4883 78.3164 19.4883C78.7266 19.4883 79.0524 19.429 79.2939 19.3105C79.54 19.1921 79.6768 19.0257 79.7041 18.8115L79.7383 18.5654C79.7702 18.3467 79.8818 18.2373 80.0732 18.2373H80.627C80.8639 18.2373 80.9733 18.3467 80.9551 18.5654L80.9141 19.0439C80.8776 19.4495 80.5996 19.7799 80.0801 20.0352C79.5651 20.2904 78.9772 20.418 78.3164 20.418C77.6556 20.418 77.0654 20.2904 76.5459 20.0352C76.0309 19.7799 75.7552 19.4495 75.7188 19.0439L75.6777 18.5654Z" fill="black"/>
<path d="M84.7832 31C84.5553 31 84.4414 30.8747 84.4414 30.624V21.5732C84.4414 21.3226 84.5553 21.1973 84.7832 21.1973H85.4121C85.64 21.1973 85.7539 21.3226 85.7539 21.5732V25.3398H90.5254V21.5732C90.5254 21.3226 90.6393 21.1973 90.8672 21.1973H91.4961C91.724 21.1973 91.8379 21.3226 91.8379 21.5732V30.624C91.8379 30.8747 91.724 31 91.4961 31H90.8672C90.6393 31 90.5254 30.8747 90.5254 30.624V26.4609H85.7539V30.624C85.7539 30.8747 85.64 31 85.4121 31H84.7832Z" fill="black"/>
<path fill-rule="evenodd" clip-rule="evenodd" d="M16.8889 19.3337H10.6667V24.667C10.6667 27.6125 13.0545 30.0003 16 30.0003C18.9455 30.0003 21.3333 27.6125 21.3333 24.667V23.7781C21.3333 21.3235 19.3435 19.3337 16.8889 19.3337ZM8 16.667V24.667C8 29.0853 11.5817 32.667 16 32.667C20.4183 32.667 24 29.0853 24 24.667V23.7781C24 19.8507 20.8162 16.667 16.8889 16.667H8Z" fill="#EC62B5"/>
<path fill-rule="evenodd" clip-rule="evenodd" d="M23.333 14.0003H8.66634C6.08901 14.0003 3.99967 16.0897 3.99967 18.667C3.99967 21.2443 6.08901 23.3337 8.66634 23.3337H23.333C25.9103 23.3337 27.9997 21.2443 27.9997 18.667C27.9997 16.0897 25.9103 14.0003 23.333 14.0003ZM8.66634 11.3337C4.61625 11.3337 1.33301 14.6169 1.33301 18.667C1.33301 22.7171 4.61625 26.0003 8.66634 26.0003H23.333C27.3831 26.0003 30.6663 22.7171 30.6663 18.667C30.6663 14.6169 27.3831 11.3337 23.333 11.3337H8.66634Z" fill="#424ebb"/>
<path fill-rule="evenodd" clip-rule="evenodd" d="M21.3333 12.2226V11.3337C21.3333 8.38816 18.9455 6.00035 16 6.00035C13.0545 6.00035 10.6667 8.38816 10.6667 11.3337V16.667H16.8889C19.3435 16.667 21.3333 14.6772 21.3333 12.2226ZM16 3.33368C11.5817 3.33368 8 6.9154 8 11.3337V19.3337H16.8889C20.8162 19.3337 24 16.1499 24 12.2226V11.3337C24 6.9154 20.4183 3.33368 16 3.33368Z" fill="#EC62B5"/>
</svg>
