<svg width="23" height="32" fill="none" xmlns="http://www.w3.org/2000/svg"><path
        fill-rule="evenodd"
        clip-rule="evenodd"
        d="M22.125 7.1A11.5 11.5 0 0 1 23 11.5c0 2.191-.628 4.336-1.81 6.18-.002.003 0 .005.002.005.003 0 .004.003.003.005l-8.852 13.85a1 1 0 0 1-1.686 0L1.806 17.691a.004.004 0 0 1 .003-.006.004.004 0 0 0 .003-.005A11.44 11.44 0 0 1 0 11.5a11.5 11.5 0 0 1 22.125-4.4Z"
        fill="#302f2f"
    /><circle cx="11.388" cy="11.388" r="10.048" fill="#fff" /><path
        d="M12.058 6.029H8.04l.893 1.14v7.894l-.893 1.014h6.699V12.53l-1.935 3.293H11.24l-.074-8.654.893-1.14Z"
        fill="#302f2f"
    /></svg>
