<svg width="25" height="24" viewBox="0 0 25 24" fill="none" xmlns="http://www.w3.org/2000/svg">
<path d="M13.2497 21.75C13.1495 21.75 13.0504 21.73 12.9581 21.6911C12.8658 21.6522 12.7822 21.5952 12.7123 21.5234C12.6424 21.4517 12.5876 21.3667 12.551 21.2734C12.5145 21.1801 12.4971 21.0805 12.4997 20.9803V12.3811C12.4997 12.2816 12.4602 12.1863 12.3899 12.1159C12.3195 12.0456 12.2242 12.0061 12.1247 12.0061H3.51892C3.36118 12.008 3.20672 11.961 3.07672 11.8716C2.94673 11.7822 2.84756 11.6548 2.79283 11.5069C2.7305 11.3304 2.73638 11.1371 2.80932 10.9647C2.88226 10.7924 3.01699 10.6536 3.18705 10.5755L21.187 2.31844C21.3261 2.25472 21.4813 2.23505 21.6319 2.26206C21.7825 2.28908 21.9212 2.36148 22.0294 2.46957C22.1377 2.57766 22.2103 2.71626 22.2375 2.86679C22.2647 3.01731 22.2453 3.17257 22.1817 3.31172L13.9317 21.3117C13.872 21.4424 13.776 21.5533 13.655 21.631C13.5341 21.7087 13.3934 21.75 13.2497 21.75Z" fill="#E80707"/>
</svg>
