<svg width="122" height="174" fill="none" xmlns="http://www.w3.org/2000/svg"><path fill-rule="evenodd" clip-rule="evenodd" d="M117.357 37.656A61.01 61.01 0 0 1 122 61c0 11.622-3.333 23-9.604 32.784a.017.017 0 0 0 .014.025c.013 0 .021.015.014.026l-50.581 79.133a1 1 0 0 1-1.686 0L9.578 93.838a.019.019 0 0 1 .016-.029.02.02 0 0 0 .017-.03C3.557 84.306 0 73.075 0 61a61 61 0 0 1 117.357-23.344Z" fill="#F5A05C"/><circle cx="60.404" cy="60.404" r="53.297" fill="#fff"/><path d="M63.957 31.979h-21.32l4.738 6.046v41.877l-4.737 5.374h35.531v-18.81L67.905 83.931h-8.291l-.395-45.907 4.738-6.046Z" fill="#F5A05C"/></svg>