<svg width="18" height="16" viewBox="0 0 18 16" fill="none" xmlns="http://www.w3.org/2000/svg">
<path d="M9 13.692C10.3167 13.692 11.4083 13.195 12.275 12.201C13.1417 11.207 13.5973 10.026 13.642 8.658L14.7 9.627L15.327 9L13.25 6.923L11.173 9L11.8 9.627L12.758 8.669C12.6833 9.783 12.3017 10.7513 11.613 11.574C10.925 12.3967 10.054 12.808 9 12.808C8.796 12.808 8.59633 12.787 8.401 12.745C8.20567 12.7037 8.01433 12.654 7.827 12.596L7.15 13.273C7.45267 13.3963 7.758 13.497 8.066 13.575C8.37467 13.653 8.686 13.692 9 13.692ZM4.75 11.077L6.827 9L6.2 8.373L5.242 9.331C5.31667 8.217 5.69833 7.24867 6.387 6.426C7.075 5.60333 7.946 5.192 9 5.192C9.204 5.192 9.40367 5.213 9.599 5.255C9.79433 5.29633 9.98567 5.346 10.173 5.404L10.85 4.727C10.5473 4.60367 10.242 4.503 9.934 4.425C9.62533 4.347 9.314 4.308 9 4.308C7.68333 4.308 6.59167 4.805 5.725 5.799C4.85833 6.793 4.40267 7.974 4.358 9.342L3.3 8.373L2.673 9L4.75 11.077ZM1.615 16C1.155 16 0.771 15.846 0.463 15.538C0.154333 15.2293 0 14.845 0 14.385V3.615C0 3.155 0.154333 2.771 0.463 2.463C0.771 2.15433 1.155 2 1.615 2H4.573L6.423 0H11.577L13.427 2H16.385C16.845 2 17.229 2.15433 17.537 2.463C17.8457 2.771 18 3.155 18 3.615V14.385C18 14.845 17.846 15.229 17.538 15.537C17.2293 15.8457 16.845 16 16.385 16H1.615ZM1.615 15H16.385C16.5643 15 16.7117 14.9423 16.827 14.827C16.9423 14.7117 17 14.5643 17 14.385V3.615C17 3.43567 16.9423 3.28833 16.827 3.173C16.7117 3.05767 16.5643 3 16.385 3H12.988L11.144 1H6.856L5.012 3H1.615C1.43567 3 1.28833 3.05767 1.173 3.173C1.05767 3.28833 1 3.43567 1 3.615V14.385C1 14.5643 1.05767 14.7117 1.173 14.827C1.28833 14.9423 1.43567 15 1.615 15Z" fill="black"/>
</svg>
