<svg width="25" height="24" viewBox="0 0 25 24" fill="none" xmlns="http://www.w3.org/2000/svg">
<path d="M15.3902 18.2197H6.60019C6.08019 18.2197 5.59018 18.1698 5.15018 18.0698C4.92018 18.0398 4.64019 17.9597 4.35019 17.8497C3.02019 17.3497 1.4502 16.1198 1.4502 13.0598V7.90973C1.4502 4.63973 3.33019 2.75977 6.60019 2.75977H15.3902C18.1502 2.75977 19.9302 4.07974 20.4102 6.47974C20.5002 6.91974 20.5402 7.38973 20.5402 7.90973V13.0598C20.5402 16.3498 18.6702 18.2197 15.3902 18.2197ZM6.61017 4.27979C4.15017 4.27979 2.96017 5.46975 2.96017 7.92975V13.0798C2.96017 14.8698 3.59019 15.9698 4.88019 16.4598C5.08019 16.5298 5.2702 16.5797 5.4502 16.6097C5.8302 16.6897 6.20017 16.7297 6.61017 16.7297H15.4002C17.8602 16.7297 19.0502 15.5398 19.0502 13.0798V7.92975C19.0502 7.50975 19.0202 7.13974 18.9502 6.79974C18.6102 5.09974 17.4502 4.27979 15.4002 4.27979H6.61017Z" fill="#484848"/>
<path d="M18.3901 21.2198H9.60009C8.75009 21.2198 7.99008 21.0998 7.34008 20.8498C5.87008 20.2998 4.91007 19.1398 4.58007 17.4798C4.53007 17.2298 4.61009 16.9698 4.79009 16.7998C4.97009 16.6198 5.2301 16.5498 5.4801 16.6098C5.8101 16.6798 6.18009 16.7198 6.60009 16.7198H15.3901C17.8501 16.7198 19.0401 15.5299 19.0401 13.0699V7.91984C19.0401 7.49984 19.0101 7.12984 18.9401 6.78984C18.8901 6.53984 18.9701 6.28985 19.1401 6.10985C19.3201 5.92985 19.5701 5.84983 19.8201 5.90983C22.2201 6.39983 23.5401 8.17984 23.5401 10.9198V16.0699C23.5401 19.3499 21.6701 21.2198 18.3901 21.2198ZM6.4201 18.2198C6.7401 18.7998 7.22009 19.2099 7.88009 19.4499C8.36009 19.6299 8.94007 19.7198 9.61007 19.7198H18.4001C20.8601 19.7198 22.0501 18.5299 22.0501 16.0699V10.9198C22.0501 9.33984 21.5601 8.28985 20.5501 7.73985C20.5501 7.79985 20.5501 7.85984 20.5501 7.91984V13.0699C20.5501 16.3399 18.6701 18.2198 15.4001 18.2198H6.61007C6.54007 18.2198 6.4801 18.2198 6.4201 18.2198Z" fill="#484848"/>
<path d="M10.9999 13.8899C9.12988 13.8899 7.60986 12.3699 7.60986 10.4999C7.60986 8.62988 9.12988 7.10986 10.9999 7.10986C12.8699 7.10986 14.3899 8.62988 14.3899 10.4999C14.3899 12.3699 12.8699 13.8899 10.9999 13.8899ZM10.9999 8.60986C9.95988 8.60986 9.10986 9.45988 9.10986 10.4999C9.10986 11.5399 9.95988 12.3899 10.9999 12.3899C12.0399 12.3899 12.8899 11.5399 12.8899 10.4999C12.8899 9.45988 12.0399 8.60986 10.9999 8.60986Z" fill="#484848"/>
<path d="M5.28027 13.4498C4.87027 13.4498 4.53027 13.1098 4.53027 12.6998V8.2998C4.53027 7.8898 4.87027 7.5498 5.28027 7.5498C5.69027 7.5498 6.03027 7.8898 6.03027 8.2998V12.6998C6.03027 13.1098 5.70027 13.4498 5.28027 13.4498Z" fill="#484848"/>
<path d="M16.71 13.4498C16.3 13.4498 15.96 13.1098 15.96 12.6998V8.2998C15.96 7.8898 16.3 7.5498 16.71 7.5498C17.12 7.5498 17.46 7.8898 17.46 8.2998V12.6998C17.46 13.1098 17.13 13.4498 16.71 13.4498Z" fill="#484848"/>
</svg>
