<svg width="69" height="69" fill="none" xmlns="http://www.w3.org/2000/svg"><circle cx="34.5" cy="34.5" r="34.5" fill="#E1F2F5"/><path d="M46.752 43H23.248A2.252 2.252 0 0 1 21 40.751V27.25A2.252 2.252 0 0 1 23.248 25h23.504A2.252 2.252 0 0 1 49 27.249V40.75A2.245 2.245 0 0 1 46.752 43Z" fill="#00A6ED"/><path d="M42.386 37H24.614a.617.617 0 0 1-.614-.616v-2.768c0-.333.272-.616.614-.616h17.772c.332 0 .614.273.614.616v2.778a.609.609 0 0 1-.614.606Z" fill="#F4F4F4"/><path d="M44.353 41h1.794a.848.848 0 0 0 .853-.853v-1.794a.848.848 0 0 0-.853-.853h-1.794a.848.848 0 0 0-.853.853v1.794a.86.86 0 0 0 .853.853Z" fill="#FFF478"/><path d="M49 28H21v3h28v-3Z" fill="#321B41"/><path d="M25 35a.5.5 0 0 1 .5-.5h11a.5.5 0 0 1 0 1h-11a.5.5 0 0 1-.5-.5Z" fill="#9B9B9B"/></svg>