<svg width="69" height="69" fill="none" xmlns="http://www.w3.org/2000/svg"><circle cx="34.5" cy="34.5" r="34.5" fill="#E1F2F5"/><path d="M45.87 19.994H24.16a3.16 3.16 0 0 0-3.16 3.16v21.69a3.16 3.16 0 0 0 3.16 3.16h21.71a3.16 3.16 0 0 0 3.16-3.16v-21.7c0-1.74-1.42-3.15-3.16-3.15Z" fill="#26C9FC"/><path d="M27.81 31.754a2.88 2.88 0 1 0 0-5.76 2.88 2.88 0 0 0 0 5.76Z" fill="#D3D3D3"/><path d="M25.01 37.264A4.625 4.625 0 0 1 21 34.952v-4.637a4.625 4.625 0 0 1 6.263-1.724c.768.43 1.282.23 1.765-.52a5.953 5.953 0 0 1 5.012-2.737 5.964 5.964 0 0 1 5.76 4.432 3.981 3.981 0 0 1 .215-.001 2.5 2.5 0 0 1 4.083-.658 5.17 5.17 0 0 1 2.056-1.329A5.524 5.524 0 0 1 49 26.994h.03v11.1H49a5.552 5.552 0 0 1-1.62-.24h-7.37a4.01 4.01 0 0 1-3.022-1.37 5.93 5.93 0 0 1-2.948.78h-9.03Z" fill="#E6E6E6"/><path d="m42.83 24.014 6.2 6.2v4.806h-.046L24.34 42.504c-.78-.78-.78-2.06 0-2.84l1.107-1.309L21 35.008v-1.871a2.32 2.32 0 0 0 .24-.203l2.35-2.35c.78-.78 2.06-.78 2.84 0l3.028 3.027.522-.617 4.35-5.22c.41-.49 1.02-.78 1.66-.78h.12a2.2 2.2 0 0 0 1.53-.63l2.35-2.35c.78-.78 2.06-.78 2.84 0Z" fill="#635994"/><path d="m44.437 36.4-4.557-4.556c-.6-.6-1.42-.94-2.27-.94-.93 0-1.68-.75-1.68-1.68v-2.23h.18a2.2 2.2 0 0 0 1.53-.63l2.35-2.35c.78-.78 2.06-.78 2.84 0l6.2 6.2v4.806h-.046l-4.547 1.38Z" fill="#433B6B"/><path d="m22.46 34.304.93-1.93c.24-.5.95-.51 1.21-.01l1 1.93a.668.668 0 0 1-.053.7h7.867a.414.414 0 0 1-.364-.59l.57-1.19c.15-.3.58-.31.75-.01l.61 1.19a.414.414 0 0 1-.363.6h10.16a.58.58 0 0 1-.137-.69l.81-1.68c.21-.44.82-.45 1.05-.02l.87 1.68c.13.253.058.54-.13.71h1.79v4.58H21v-4.58h1.52a.667.667 0 0 1-.06-.69Z" fill="#00F397"/><path d="M49.03 39.09a89.765 89.765 0 0 0-14.02-1.097A89.923 89.923 0 0 0 21 39.09v5.754a3.16 3.16 0 0 0 3.16 3.16h21.71a3.16 3.16 0 0 0 3.16-3.16V39.09Z" fill="#00A6ED"/></svg>