<svg width="69" height="69" fill="none" xmlns="http://www.w3.org/2000/svg"><circle cx="34.5" cy="34.5" r="34.5" fill="#E1F2F5"/><path d="M25.009 27.818h-3.091l.384-2.88h2.323l.384 2.88Z" fill="#FF8A50"/><path opacity=".2" d="M24.835 26.521a2.836 2.836 0 0 1-1.371.347c-.5 0-.967-.126-1.373-.347l.211-1.582h2.323l.21 1.582Z" fill="#5E452C"/><path d="M23.463 25.76a2.88 2.88 0 1 0 0-5.76 2.88 2.88 0 0 0 0 5.76Z" fill="#FF8A50"/><path d="M24.193 24.944a2.189 2.189 0 1 0-1.461-4.127 2.189 2.189 0 0 0 1.461 4.127Z" fill="#FFD05C"/><g opacity=".3" fill="#5E452C"><path d="M25.293 22.753a1.895 1.895 0 0 0-.715-1.343 1.931 1.931 0 0 0-1.472-.386c-.514.076-.98.381-1.266.824a1.929 1.929 0 0 0-.23 1.578c.126.457.445.853.854 1.082.408.233.897.304 1.34.206a1.968 1.968 0 0 0 1.124-.688c.279-.342.446-.774.463-1.22.002-.02-.005-.038-.017-.038-.01 0-.02.016-.021.037-.008.18-.046.358-.103.529-.06.17-.143.327-.243.475a2.197 2.197 0 0 1-.359.394c-.136.115-.29.213-.454.294a1.83 1.83 0 0 1-1.494.035c-.477-.2-.86-.612-1.014-1.112a1.854 1.854 0 0 1 .192-1.532 1.774 1.774 0 0 1 1.232-.812c.693-.1 1.391.155 1.814.723a1.918 1.918 0 0 1 .359.965c.001.004.004.005.006.004a.013.013 0 0 0 .004-.015Z"/><path d="M25.038 22.755a1.634 1.634 0 0 0-.621-1.147 1.683 1.683 0 0 0-1.259-.334c-.439.062-.844.32-1.095.699a1.675 1.675 0 0 0-.213 1.368c.105.4.384.748.741.947.356.203.783.264 1.169.174a1.71 1.71 0 0 0 .974-.603 1.83 1.83 0 0 0 .4-1.057c.002-.018-.006-.034-.018-.034-.01 0-.019.013-.02.033-.033.631-.434 1.185-1.001 1.459a1.57 1.57 0 0 1-1.292.037 1.54 1.54 0 0 1-.876-.965 1.593 1.593 0 0 1 .176-1.32 1.514 1.514 0 0 1 1.061-.684c.591-.077 1.18.133 1.547.614a1.687 1.687 0 0 1 .316.821c.002.005.005.006.008.005.003-.003.004-.009.003-.014Z"/><path d="M24.782 22.756a1.382 1.382 0 0 0-.526-.95 1.428 1.428 0 0 0-1.044-.281 1.332 1.332 0 0 0-.924.573c-.22.314-.301.741-.194 1.157.085.34.323.64.63.81.305.171.668.222.997.143.33-.075.623-.262.822-.518.201-.255.322-.568.338-.895.002-.015-.006-.029-.018-.029-.01 0-.019.012-.02.029-.032.531-.37.991-.843 1.228a1.317 1.317 0 0 1-1.092.039 1.283 1.283 0 0 1-.738-.82 1.336 1.336 0 0 1 .16-1.108c.203-.31.537-.517.89-.557.247-.027.485.001.705.085.22.083.42.225.575.421a1.414 1.414 0 0 1 .273.68c.001.003.004.005.007.003.002-.001.003-.005.002-.01Z"/><path d="M24.525 22.759a1.13 1.13 0 0 0-.432-.753 1.175 1.175 0 0 0-.828-.23c-.291.03-.573.194-.755.448a1.163 1.163 0 0 0-.175.946c.065.283.262.534.517.674.253.142.555.18.826.112.27-.064.51-.222.671-.433.163-.212.26-.465.276-.731.001-.014-.006-.024-.018-.024-.01 0-.02.009-.02.022-.03.432-.306.798-.686.996a1.06 1.06 0 0 1-.889.042 1.03 1.03 0 0 1-.6-.671 1.085 1.085 0 0 1 .143-.898.997.997 0 0 1 .72-.43c.197-.015.385.007.556.07.173.065.332.174.457.328.06.078.107.161.148.25.037.091.062.187.082.288.001.003.004.004.007.003 0-.003.002-.006 0-.01Z"/></g><path d="M45.439 27.818h-3.09l.384-2.88h2.322l.384 2.88Z" fill="#FF8A50"/><path opacity=".2" d="M45.265 26.521a2.836 2.836 0 0 1-1.371.347c-.499 0-.966-.126-1.373-.347l.212-1.582h2.322l.21 1.582Z" fill="#5E452C"/><path d="M43.893 25.76a2.88 2.88 0 1 0 0-5.76 2.88 2.88 0 0 0 0 5.76Z" fill="#FF8A50"/><path d="M46.03 23.365a2.189 2.189 0 1 0-4.269-.965 2.189 2.189 0 0 0 4.27.965Z" fill="#FFD05C"/><g opacity=".3" fill="#5E452C"><path d="M45.723 22.753a1.896 1.896 0 0 0-.715-1.343 1.932 1.932 0 0 0-1.473-.386 1.84 1.84 0 0 0-1.265.824 1.929 1.929 0 0 0-.23 1.578c.126.457.444.853.854 1.082.408.233.896.304 1.34.206a1.969 1.969 0 0 0 1.124-.688 2.08 2.08 0 0 0 .463-1.22c.001-.02-.006-.038-.018-.038-.01 0-.02.016-.02.037a1.954 1.954 0 0 1-.346 1.004 2.204 2.204 0 0 1-.359.394c-.137.115-.29.213-.454.294a1.83 1.83 0 0 1-1.495.035c-.476-.2-.86-.612-1.014-1.112a1.854 1.854 0 0 1 .192-1.532 1.774 1.774 0 0 1 1.233-.812c.692-.1 1.39.155 1.813.723.103.14.182.293.245.455.06.162.095.334.114.51.002.004.005.005.006.004.006-.003.006-.009.005-.015Z"/><path d="M45.467 22.755a1.634 1.634 0 0 0-.621-1.147 1.683 1.683 0 0 0-1.258-.334c-.44.062-.845.32-1.096.699a1.675 1.675 0 0 0-.213 1.368c.106.4.384.748.741.947a1.64 1.64 0 0 0 1.17.174 1.71 1.71 0 0 0 .973-.603c.24-.299.383-.671.4-1.057.002-.018-.006-.034-.017-.034-.01 0-.02.013-.021.033-.033.631-.433 1.185-1 1.459-.4.195-.88.213-1.293.037a1.54 1.54 0 0 1-.876-.965 1.593 1.593 0 0 1 .176-1.32 1.514 1.514 0 0 1 1.062-.684c.59-.077 1.179.133 1.547.614a1.687 1.687 0 0 1 .315.821c.002.005.005.006.008.005.003-.003.004-.009.003-.014Z"/><path d="M45.21 22.756a1.382 1.382 0 0 0-.525-.95 1.428 1.428 0 0 0-1.044-.281 1.332 1.332 0 0 0-.924.573c-.22.314-.301.741-.194 1.157.085.34.323.64.63.81.305.171.669.222.998.143.329-.075.622-.262.821-.518.201-.255.322-.568.338-.895.002-.015-.006-.029-.017-.029-.01 0-.02.012-.021.029-.032.531-.37.991-.843 1.228a1.317 1.317 0 0 1-1.091.039 1.283 1.283 0 0 1-.739-.82 1.336 1.336 0 0 1 .16-1.108c.203-.31.537-.517.89-.557.247-.027.485.001.706.085.218.083.42.225.574.421a1.414 1.414 0 0 1 .273.68c.001.003.004.005.007.003.002-.001.003-.005.002-.01Z"/><path d="M44.955 22.759a1.13 1.13 0 0 0-.432-.753 1.175 1.175 0 0 0-.828-.23c-.291.03-.573.194-.755.448a1.162 1.162 0 0 0-.175.946c.065.283.262.534.516.674.254.142.556.18.827.112.27-.064.509-.222.671-.433.163-.212.26-.465.276-.731.001-.014-.006-.024-.018-.024-.01 0-.02.009-.021.022-.03.432-.305.798-.685.996a1.06 1.06 0 0 1-.889.042 1.03 1.03 0 0 1-.6-.671 1.085 1.085 0 0 1 .143-.898.997.997 0 0 1 .72-.43c.197-.015.385.007.556.07.173.065.332.174.457.328.06.078.107.161.148.25.037.091.062.187.081.288.002.003.005.004.008.003 0-.003.002-.006 0-.01Z"/></g><path d="M48.797 41.12H22.813v3.754h25.984V41.12Z" fill="#FF8A50"/><path d="m28.154 41.12-1.887 3.754h-3.354l1.885-3.754h3.356Zm6.879 0-1.885 3.754H29.79l1.887-3.754h3.356Zm6.877 0-1.885 3.754h-3.356l1.886-3.754h3.355Zm6.879 0-1.885 3.754h-3.358l1.887-3.754h3.356Z" fill="#fff"/><path d="M46.102 49.637H50L47.113 31.93h-3.898l2.887 17.708Zm-20.786 0h3.898L26.325 31.93h-3.898l2.889 17.708Z" fill="#fff"/><path opacity=".2" d="M46.102 49.637H50L47.113 31.93h-3.898l2.887 17.708Zm-20.786 0h3.898L26.325 31.93h-3.898l2.889 17.708Z" fill="#5E452C"/><path d="m24.785 31.93-.242 1.491-.261 1.602-2.384 14.614H18l2.384-14.614.26-1.602.243-1.492h3.898Z" fill="#fff"/><path opacity=".2" d="M24.221 31.93c-.205 1.48-.425 2.958-.649 4.435l-.688 4.43-.72 4.423-.373 2.21-.387 2.208.317-2.219.332-2.217.688-4.43.721-4.423c.246-1.473.494-2.947.76-4.418Z" fill="#5E452C"/><path d="m45.574 31.93-.243 1.491-.262 1.602-2.384 14.614H38.79l2.382-14.614.262-1.602.243-1.492h3.898Z" fill="#fff"/><path opacity=".2" d="M44.996 31.93a371.17 371.17 0 0 1-.65 4.435l-.687 4.43-.72 4.423-.373 2.21-.387 2.208.317-2.219.332-2.217.688-4.43.72-4.423c.248-1.473.496-2.947.76-4.418Z" fill="#5E452C"/><path d="M49.039 26.708H18.386v6.712H49.04v-6.712Z" fill="#FF8A50"/><path d="m24.686 26.708-2.224 6.713h-3.96l2.225-6.713h3.96Zm8.115 0-2.225 6.713h-3.96l2.224-6.713h3.961Zm8.113 0L38.69 33.42h-3.959l2.224-6.713h3.96Zm8.115 0-2.225 6.713h-3.96l2.224-6.713h3.961Z" fill="#fff"/><path d="M44.371 41.794H18.386v3.753h25.985v-3.753Z" fill="#FF8A50"/><path d="m23.727 41.794-1.887 3.753h-3.356l1.887-3.753h3.356Zm6.879 0-1.886 3.753h-3.357l1.886-3.753h3.357Zm6.877 0-1.886 3.753h-3.355l1.885-3.753h3.356Zm6.879 0-1.885 3.753H39.12l1.886-3.753h3.356Z" fill="#fff"/><path opacity=".2" d="m24.543 33.421-.26 1.602h-3.899l.261-1.602h3.898Zm20.788 0h-3.898l-.262 1.602h3.898l.262-1.602Z" fill="#5E452C"/></svg>