<svg width="44" height="51" viewBox="0 0 44 51" fill="none" xmlns="http://www.w3.org/2000/svg">
<path d="M32.7347 20.7552L30.0425 20.9612L14.4833 22.159L14.3848 21.8715C14.3848 21.8715 11.7375 22.0933 10.7093 22.8696C9.68121 23.6459 8.90882 24.8688 9.74832 25.3426C10.5878 25.8165 15.5818 25.3597 15.5818 25.3597L15.45 24.9759L26.2863 24.3334L29.62 24.0763C30.033 24.0452 30.4439 24.1589 30.7823 24.3979C31.1206 24.6368 31.3652 24.9861 31.4741 25.3857L34.7815 37.5898L34.8538 37.8586L38.2479 37.7405C38.4031 37.736 38.5553 37.6965 38.6931 37.6249C38.7242 37.4663 38.7182 37.3027 38.6757 37.1467L37.8949 34.2695L34.5856 22.066C34.4771 21.6667 34.233 21.3176 33.8953 21.0785C33.5577 20.8394 33.1474 20.725 32.7347 20.7552Z" fill="url(#paint0_linear_2072_48560)"/>
<path d="M32.7347 20.7552L30.0425 20.9612L14.4833 22.159L14.3848 21.8715C14.3848 21.8715 11.7375 22.0933 10.7093 22.8696C9.68121 23.6459 8.90882 24.8688 9.74832 25.3426C10.5878 25.8165 15.5818 25.3597 15.5818 25.3597L15.45 24.9759L26.2863 24.3334L29.62 24.0763C30.033 24.0452 30.4439 24.1589 30.7823 24.3979C31.1206 24.6368 31.3652 24.9861 31.4741 25.3857L34.7815 37.5898L34.8538 37.8586L38.2479 37.7405C38.4031 37.736 38.5553 37.6965 38.6931 37.6249C38.7242 37.4663 38.7182 37.3027 38.6757 37.1467L37.8949 34.2695L34.5856 22.066C34.4771 21.6667 34.233 21.3176 33.8953 21.0785C33.5577 20.8394 33.1474 20.725 32.7347 20.7552Z" fill="url(#paint1_linear_2072_48560)"/>
<path d="M35.1325 21.3373L38.441 33.5409L39.2228 36.419C39.2861 36.6503 39.2681 36.8962 39.1718 37.1158C39.0755 37.3353 38.9068 37.5151 38.6938 37.6252C38.7249 37.4666 38.7189 37.3029 38.6765 37.1469L37.8956 34.2698L34.5864 22.0662C34.4777 21.6669 34.2336 21.3178 33.8959 21.0787C33.5582 20.8396 33.1478 20.7253 32.7352 20.7555L30.043 20.9615L14.1798 22.2663C14.1798 22.2663 12.2757 22.4857 11.8317 22.6712C11.0623 22.9922 10.4018 23.528 9.92871 24.2144L9.71624 24.5219C9.56747 24.7404 9.62648 24.9646 9.7385 25.1083C9.78497 25.1708 9.84684 25.2204 9.91811 25.2521C9.98933 25.2839 10.0676 25.2967 10.1452 25.2894L14.342 25.0405L14.4695 25.0334L26.2871 24.3325L29.6208 24.0754C30.0338 24.0443 30.4447 24.158 30.7831 24.397C31.1214 24.6359 31.366 24.9852 31.4749 25.3848L34.7823 37.5889L34.8545 37.8577L35.0455 38.5601L35.5647 40.4654C35.6059 40.618 35.6122 40.7779 35.583 40.9332C35.5538 41.0884 35.49 41.2352 35.3961 41.3623C35.3023 41.4894 35.181 41.5937 35.0412 41.6674C34.9014 41.7411 34.7468 41.7823 34.5889 41.7878L15.0329 42.993C14.3874 43.0378 13.8815 42.6335 13.6947 42.1098L13.6924 42.1086L13.6653 42.0298L13.6647 42.0284C13.6647 42.0284 11.264 29.1492 10.7216 26.1724L10.2135 26.2115C9.98299 26.2296 9.75161 26.1896 9.54053 26.0953C9.32946 26.0009 9.14535 25.8551 9.0051 25.6712C8.64847 25.2166 8.57167 24.5527 8.95211 23.9985L9.16559 23.6884C9.61765 23.0321 10.2128 22.4869 10.9062 22.094C11.5997 21.7011 12.3733 21.4708 13.1686 21.4204L14.3195 21.3426L14.4007 21.3354L33.2812 20.027C33.694 19.996 34.1047 20.1099 34.4426 20.3491C34.7805 20.5882 35.0245 20.9377 35.1325 21.3373Z" fill="url(#paint2_linear_2072_48560)"/>
<path d="M35.1325 21.3373L38.441 33.5409L39.2228 36.419C39.2861 36.6503 39.2681 36.8962 39.1718 37.1158C39.0755 37.3353 38.9068 37.5151 38.6938 37.6252C38.7249 37.4666 38.7189 37.3029 38.6765 37.1469L37.8956 34.2698L34.5864 22.0662C34.4777 21.6669 34.2336 21.3178 33.8959 21.0787C33.5582 20.8396 33.1478 20.7253 32.7352 20.7555L30.043 20.9615L14.1798 22.2663C14.1798 22.2663 12.2757 22.4857 11.8317 22.6712C11.0623 22.9922 10.4018 23.528 9.92871 24.2144L9.71624 24.5219C9.56747 24.7404 9.62648 24.9646 9.7385 25.1083C9.78497 25.1708 9.84684 25.2204 9.91811 25.2521C9.98933 25.2839 10.0676 25.2967 10.1452 25.2894L14.342 25.0405L14.4695 25.0334L26.2871 24.3325L29.6208 24.0754C30.0338 24.0443 30.4447 24.158 30.7831 24.397C31.1214 24.6359 31.366 24.9852 31.4749 25.3848L34.7823 37.5889L34.8545 37.8577L35.0455 38.5601L35.5647 40.4654C35.6059 40.618 35.6122 40.7779 35.583 40.9332C35.5538 41.0884 35.49 41.2352 35.3961 41.3623C35.3023 41.4894 35.181 41.5937 35.0412 41.6674C34.9014 41.7411 34.7468 41.7823 34.5889 41.7878L15.0329 42.993C14.3874 43.0378 13.8815 42.6335 13.6947 42.1098L13.6924 42.1086L13.6653 42.0298L13.6647 42.0284C13.6647 42.0284 11.264 29.1492 10.7216 26.1724L10.2135 26.2115C9.98299 26.2296 9.75161 26.1896 9.54053 26.0953C9.32946 26.0009 9.14535 25.8551 9.0051 25.6712C8.64847 25.2166 8.57167 24.5527 8.95211 23.9985L9.16559 23.6884C9.61765 23.0321 10.2128 22.4869 10.9062 22.094C11.5997 21.7011 12.3733 21.4708 13.1686 21.4204L14.3195 21.3426L14.4007 21.3354L33.2812 20.027C33.694 19.996 34.1047 20.1099 34.4426 20.3491C34.7805 20.5882 35.0245 20.9377 35.1325 21.3373Z" fill="url(#paint3_linear_2072_48560)"/>
<path d="M28.5864 24.1694L12.9623 24.9899L12.7572 24.7436L7.92885 18.4915C7.69424 18.1881 7.58912 17.8044 7.63645 17.4238C7.68373 17.0433 7.87964 16.6969 8.18137 16.4603L15.9478 10.3724C16.5567 9.89524 17.4408 10.0133 18.5563 10.7348L23.5829 17.4607L28.5864 24.1694Z" fill="url(#paint4_linear_2072_48560)"/>
<path d="M28.5876 24.1691L13.0572 25.1175L12.7584 24.7432C13.7535 22.0068 15.9418 19.6201 18.9697 18.3551C20.4295 17.7413 22.0007 17.4367 23.5841 17.4604L28.5876 24.1691Z" fill="url(#paint5_linear_2072_48560)"/>
<path d="M12.3773 13.1737L21.2791 24.5519L24.9342 24.3599L14.5991 11.4318L12.3773 13.1737Z" fill="url(#paint6_linear_2072_48560)"/>
<path d="M14.3724 17.9098L12.4804 15.4697C12.4655 15.4502 12.4589 15.4257 12.462 15.4013C12.4651 15.3769 12.4777 15.3548 12.4971 15.3398C12.5165 15.3248 12.5411 15.3181 12.5654 15.3212C12.5897 15.3243 12.6119 15.3369 12.6269 15.3562L14.5192 17.797C14.5341 17.8165 14.5409 17.8411 14.5378 17.8655C14.5347 17.8899 14.5222 17.912 14.5029 17.9271C14.4931 17.9346 14.4821 17.94 14.4703 17.9432C14.4585 17.9463 14.4462 17.9471 14.4341 17.9455C14.4219 17.9439 14.4103 17.9399 14.3997 17.9338C14.3891 17.9277 14.3798 17.9196 14.3724 17.9098Z" fill="white"/>
<path d="M14.8254 19.4332L12.0264 15.8232C12.0114 15.8038 12.0048 15.7793 12.0078 15.7549C12.0109 15.7306 12.0235 15.7085 12.0428 15.6934C12.0622 15.6783 12.0868 15.6716 12.1112 15.6747C12.1355 15.6778 12.1576 15.6904 12.1727 15.7098L14.9719 19.3198C14.9868 19.3392 14.9935 19.3637 14.9904 19.3881C14.9874 19.4124 14.9748 19.4345 14.9554 19.4496C14.936 19.4646 14.9114 19.4713 14.887 19.4682C14.8627 19.4652 14.8405 19.4526 14.8254 19.4332Z" fill="white"/>
<path d="M14.3687 19.7862L11.5694 16.1755C11.5544 16.156 11.5478 16.1314 11.5508 16.1071C11.5539 16.0827 11.5665 16.0605 11.5858 16.0454C11.6053 16.0304 11.6298 16.0237 11.6542 16.0267C11.6786 16.0298 11.7008 16.0424 11.7159 16.0617L14.5148 19.6717C14.5299 19.6912 14.5365 19.7158 14.5335 19.7402C14.5304 19.7645 14.5178 19.7867 14.4985 19.8018C14.4792 19.8168 14.4547 19.8235 14.4304 19.8206C14.4061 19.8177 14.3839 19.8053 14.3687 19.7862Z" fill="white"/>
<path d="M13.9145 20.1391L11.1153 16.5292C11.1002 16.5098 11.0936 16.4852 11.0967 16.4609C11.0998 16.4366 11.1123 16.4145 11.1317 16.3994C11.1511 16.3844 11.1756 16.3777 11.2 16.3808C11.2243 16.3839 11.2464 16.3965 11.2615 16.4158L14.0605 20.0258C14.0681 20.0354 14.0738 20.0465 14.077 20.0583C14.0804 20.0701 14.0813 20.0825 14.0798 20.0947C14.0784 20.1068 14.0744 20.1186 14.0684 20.1293C14.0624 20.14 14.0542 20.1493 14.0445 20.1568C14.0348 20.1642 14.0238 20.1696 14.012 20.1727C14.0002 20.1758 13.9879 20.1766 13.9758 20.1749C13.9637 20.1733 13.9521 20.1693 13.9415 20.1631C13.931 20.157 13.9218 20.1488 13.9145 20.1391Z" fill="white"/>
<path d="M29.1592 24.8084C29.5721 24.7779 29.9827 24.892 30.3206 25.1312C30.6585 25.3704 30.9026 25.7198 31.011 26.1194L34.32 38.3234L35.1005 41.1999C35.142 41.3524 35.1484 41.5122 35.1193 41.6676C35.0903 41.8229 35.0265 41.9697 34.9326 42.0969C34.8389 42.2241 34.7175 42.3284 34.5777 42.4022C34.4379 42.4758 34.2833 42.5169 34.1254 42.5225L14.569 43.7268C13.9238 43.7717 13.4179 43.3671 13.2311 42.8434L13.2288 42.8425L13.2016 42.7634L13.201 42.7618L8.95159 25.6742L9.0064 25.6713C9.14672 25.8548 9.33071 26.0003 9.5416 26.0946C9.75255 26.1888 9.98365 26.2288 10.214 26.2109L29.1592 24.8084Z" fill="url(#paint7_linear_2072_48560)"/>
<path d="M29.1592 24.8084C29.5721 24.7779 29.9827 24.892 30.3206 25.1312C30.6585 25.3704 30.9026 25.7198 31.011 26.1194L34.32 38.3234L35.1005 41.1999C35.142 41.3524 35.1484 41.5122 35.1193 41.6676C35.0903 41.8229 35.0265 41.9697 34.9326 42.0969C34.8389 42.2241 34.7175 42.3284 34.5777 42.4022C34.4379 42.4758 34.2833 42.5169 34.1254 42.5225L14.569 43.7268C13.9238 43.7717 13.4179 43.3671 13.2311 42.8434L13.2288 42.8425L13.2016 42.7634L13.201 42.7618L8.95159 25.6742L9.0064 25.6713C9.14672 25.8548 9.33071 26.0003 9.5416 26.0946C9.75255 26.1888 9.98365 26.2288 10.214 26.2109L29.1592 24.8084Z" fill="url(#paint8_linear_2072_48560)"/>
<path d="M16.1338 42.3533C15.6473 42.3695 15.1685 42.2285 14.7685 41.9513C14.3684 41.674 14.0683 41.2753 13.9126 40.814L11.4696 29.0921C11.4046 28.899 11.3846 28.6935 11.4112 28.4915C11.4378 28.2896 11.5102 28.0963 11.6229 27.9266C11.7356 27.7569 11.8857 27.6151 12.0616 27.5123C12.2375 27.4095 12.4345 27.3482 12.6377 27.3333L28.3154 26.1718C28.6927 26.1439 29.068 26.2481 29.3767 26.4667C29.6855 26.6854 29.9085 27.0046 30.0075 27.3697L33.0697 38.664L33.3493 39.6941C33.3995 39.879 33.4073 40.0728 33.372 40.261C33.3368 40.4493 33.2594 40.6272 33.1457 40.7814C33.0321 40.9355 32.885 41.062 32.7157 41.1514C32.5462 41.2407 32.3588 41.2906 32.1673 41.2973L16.1338 42.3533Z" stroke="#FFF3F4" stroke-width="0.5" stroke-miterlimit="10" stroke-dasharray="17.07 17.07"/>
<path d="M37.0823 26.4737L36.4677 26.4624L36.6096 27.0166L33.3391 30.8037C33.0859 31.093 32.7346 31.2783 32.3529 31.324L26.0235 32.0085C25.7384 32.0415 25.4639 32.1358 25.2185 32.2847C24.9733 32.4336 24.7629 32.6337 24.6021 32.8713C24.4412 33.109 24.3336 33.3786 24.2865 33.6617C24.2394 33.9448 24.2539 34.2347 24.3291 34.5116L24.4551 34.9765C24.6361 35.6407 25.0491 36.2182 25.6192 36.6041C26.1892 36.9901 26.8787 37.159 27.5627 37.0803L33.2591 36.4677C33.6405 36.4241 34.0087 36.301 34.3396 36.1064C34.6029 35.9536 34.8393 35.7587 35.0395 35.5294L38.4664 31.562L37.2182 26.9715L37.2674 26.915C37.5908 26.5429 37.0823 26.4737 37.0823 26.4737Z" fill="url(#paint9_linear_2072_48560)"/>
<path d="M37.0823 26.4737L36.4677 26.4624L36.6096 27.0166L33.3391 30.8037C33.0859 31.093 32.7346 31.2783 32.3529 31.324L26.0235 32.0085C25.7384 32.0415 25.4639 32.1358 25.2185 32.2847C24.9733 32.4336 24.7629 32.6337 24.6021 32.8713C24.4412 33.109 24.3336 33.3786 24.2865 33.6617C24.2394 33.9448 24.2539 34.2347 24.3291 34.5116L24.4551 34.9765C24.6361 35.6407 25.0491 36.2182 25.6192 36.6041C26.1892 36.9901 26.8787 37.159 27.5627 37.0803L33.2591 36.4677C33.6405 36.4241 34.0087 36.301 34.3396 36.1064C34.6029 35.9536 34.8393 35.7587 35.0395 35.5294L38.4664 31.562L37.2182 26.9715L37.2674 26.915C37.5908 26.5429 37.0823 26.4737 37.0823 26.4737Z" fill="url(#paint10_linear_2072_48560)"/>
<path d="M33.1659 31.5469L34.5222 36.5486C34.1911 36.7432 33.823 36.8663 33.4416 36.91L27.7451 37.5223C27.0612 37.601 26.3718 37.4321 25.8017 37.0462C25.2316 36.6603 24.8187 36.0829 24.6376 35.4187L24.5117 34.9539C24.4364 34.6769 24.4219 34.387 24.469 34.1039C24.5161 33.8208 24.6238 33.5513 24.7846 33.3136C24.9455 33.076 25.1557 32.8758 25.4011 32.7269C25.6464 32.578 25.9209 32.4838 26.206 32.4508L32.5354 31.7663C32.7592 31.7405 32.9744 31.6656 33.1659 31.5469Z" fill="url(#paint11_linear_2072_48560)"/>
<path d="M33.1659 31.5469L34.5222 36.5486C34.1911 36.7432 33.823 36.8663 33.4416 36.91L27.7451 37.5223C27.0612 37.601 26.3718 37.4321 25.8017 37.0462C25.2316 36.6603 24.8187 36.0829 24.6376 35.4187L24.5117 34.9539C24.4364 34.6769 24.4219 34.387 24.469 34.1039C24.5161 33.8208 24.6238 33.5513 24.7846 33.3136C24.9455 33.076 25.1557 32.8758 25.4011 32.7269C25.6464 32.578 25.9209 32.4838 26.206 32.4508L32.5354 31.7663C32.7592 31.7405 32.9744 31.6656 33.1659 31.5469Z" fill="url(#paint12_linear_2072_48560)"/>
<path d="M37.3761 26.6669L38.7596 31.7554L35.2234 35.9717C35.0233 36.201 34.7869 36.396 34.5238 36.5489L33.1665 31.5476C33.3001 31.4656 33.4207 31.364 33.5238 31.2459L37.3761 26.6669Z" fill="url(#paint13_linear_2072_48560)"/>
<path d="M37.3761 26.6669L38.7596 31.7554L35.2234 35.9717C35.0233 36.201 34.7869 36.396 34.5238 36.5489L33.1665 31.5476C33.3001 31.4656 33.4207 31.364 33.5238 31.2459L37.3761 26.6669Z" fill="url(#paint14_linear_2072_48560)"/>
<path d="M27.9202 36.3155C28.6649 36.0044 29.0164 35.1485 28.7053 34.4038C28.3942 33.6592 27.5383 33.3077 26.7936 33.6188C26.049 33.9299 25.6975 34.7858 26.0086 35.5304C26.3197 36.2751 27.1756 36.6266 27.9202 36.3155Z" fill="url(#paint15_linear_2072_48560)"/>
<path d="M27.1023 22.7018C27.1509 22.7106 27.1999 22.7169 27.2491 22.7205C27.2986 22.724 27.3483 22.7248 27.3979 22.7229L28.7022 22.8203L28.7736 21.9556C29.5529 21.0754 30.1477 19.5199 30.2967 17.7146C30.4457 15.9094 30.1137 14.2846 29.4879 13.2993L29.5599 12.426L27.958 12.3062L27.9572 12.3154C26.5681 12.3667 25.2897 14.5501 25.0611 17.323C24.8325 20.0959 25.7377 22.4428 27.1014 22.6997L27.1023 22.7018Z" fill="url(#paint16_linear_2072_48560)"/>
<path d="M31.6368 17.841C31.8813 14.9688 30.9082 12.5408 29.4635 12.4178C28.0187 12.2948 26.6492 14.5235 26.4047 17.3956C26.1602 20.2677 27.1332 22.6957 28.578 22.8187C30.0228 22.9417 31.3923 20.7131 31.6368 17.841Z" fill="url(#paint17_linear_2072_48560)"/>
<path d="M28.6766 21.8175C28.5912 21.8113 28.5068 21.7946 28.4254 21.7678C29.4952 21.5988 30.4524 19.8881 30.6297 17.7392C30.807 15.5904 30.1412 13.7607 29.113 13.4346C29.1976 13.4202 29.2838 13.4162 29.3694 13.4227C30.5361 13.5098 31.3274 15.4589 31.1354 17.7774C30.9434 20.0959 29.8446 21.9047 28.6766 21.8175Z" fill="url(#paint18_linear_2072_48560)"/>
<path d="M28.4266 21.7673C27.3991 21.4417 26.7327 19.6098 26.91 17.461C27.0873 15.3121 28.0459 13.6032 29.1142 13.4341C30.1434 13.7598 30.8083 15.5902 30.6309 17.7388C30.4536 19.8874 29.4964 21.5983 28.4266 21.7673Z" fill="url(#paint19_linear_2072_48560)"/>
<path d="M26.7108 10.5378C29.0393 8.81646 29.6932 5.7521 28.1712 3.69335C26.6493 1.6346 23.5279 1.36114 21.1994 3.08251C18.8709 4.80387 18.217 7.86825 19.739 9.927C21.2609 11.9857 24.3823 12.2592 26.7108 10.5378Z" fill="url(#paint20_linear_2072_48560)"/>
<path d="M26.2284 10.1658C28.5569 8.44436 29.2108 5.37998 27.6888 3.32131C26.1669 1.26256 23.0455 0.989067 20.717 2.71043C18.3885 4.43183 17.7346 7.49621 19.2565 9.55496C20.7785 11.6136 23.8999 11.8871 26.2284 10.1658Z" fill="url(#paint21_linear_2072_48560)"/>
<path d="M20.1254 6.14551L22.2375 9.30037L27.4134 5.34462L26.8485 4.53526L22.5243 7.7929L20.9927 5.48836L20.1254 6.14551Z" fill="white"/>
<defs>
<linearGradient id="paint0_linear_2072_48560" x1="27.0954" y1="27.6555" x2="30.1316" y2="30.2114" gradientUnits="userSpaceOnUse">
<stop stop-color="#3ABAF9"/>
<stop offset="1" stop-color="#2A8BCA"/>
</linearGradient>
<linearGradient id="paint1_linear_2072_48560" x1="11.3906" y1="29.6456" x2="37.2917" y2="27.8151" gradientUnits="userSpaceOnUse">
<stop offset="0.0434315" stop-color="#FFD2A1"/>
<stop offset="1" stop-color="#D8952A"/>
</linearGradient>
<linearGradient id="paint2_linear_2072_48560" x1="1.26971" y1="35.673" x2="28.1623" y2="54.3914" gradientUnits="userSpaceOnUse">
<stop stop-color="#007EEE"/>
<stop offset="1" stop-color="#00D0F7"/>
</linearGradient>
<linearGradient id="paint3_linear_2072_48560" x1="18.1015" y1="20.1572" x2="38.4196" y2="33.1282" gradientUnits="userSpaceOnUse">
<stop stop-color="#D8952A"/>
<stop offset="1" stop-color="#FFD2A1"/>
</linearGradient>
<linearGradient id="paint4_linear_2072_48560" x1="14.3637" y1="13.7126" x2="19.1076" y2="23.0289" gradientUnits="userSpaceOnUse">
<stop stop-color="#FF9D00"/>
<stop offset="1" stop-color="#FFE84C"/>
</linearGradient>
<linearGradient id="paint5_linear_2072_48560" x1="22.1876" y1="26.9259" x2="18.395" y2="20.7428" gradientUnits="userSpaceOnUse">
<stop stop-color="#FF9D00"/>
<stop offset="1" stop-color="#FFE84C"/>
</linearGradient>
<linearGradient id="paint6_linear_2072_48560" x1="22.0199" y1="24.2514" x2="15.8677" y2="14.2215" gradientUnits="userSpaceOnUse">
<stop stop-color="#303030"/>
<stop offset="1" stop-color="#727272"/>
</linearGradient>
<linearGradient id="paint7_linear_2072_48560" x1="2.82257" y1="37.0976" x2="27.6412" y2="52.4588" gradientUnits="userSpaceOnUse">
<stop stop-color="#00D0F7"/>
<stop offset="1" stop-color="#007EEE"/>
</linearGradient>
<linearGradient id="paint8_linear_2072_48560" x1="16.3607" y1="23.6043" x2="34.9894" y2="34.0917" gradientUnits="userSpaceOnUse">
<stop stop-color="#FFD2A1"/>
<stop offset="1" stop-color="#D8952A"/>
</linearGradient>
<linearGradient id="paint9_linear_2072_48560" x1="25.316" y1="36.6918" x2="38.7765" y2="29.1595" gradientUnits="userSpaceOnUse">
<stop stop-color="#3ABAF9"/>
<stop offset="1" stop-color="#2A8BCA"/>
</linearGradient>
<linearGradient id="paint10_linear_2072_48560" x1="29.6058" y1="29.6574" x2="35.1766" y2="35.5649" gradientUnits="userSpaceOnUse">
<stop stop-color="#D8952A"/>
<stop offset="1" stop-color="#FFD2A1"/>
</linearGradient>
<linearGradient id="paint11_linear_2072_48560" x1="21.8481" y1="36.6691" x2="28.6314" y2="42.6311" gradientUnits="userSpaceOnUse">
<stop stop-color="#00D0F7"/>
<stop offset="1" stop-color="#007EEE"/>
</linearGradient>
<linearGradient id="paint12_linear_2072_48560" x1="27.7676" y1="32.0012" x2="32.9533" y2="36.2469" gradientUnits="userSpaceOnUse">
<stop stop-color="#FFD2A1"/>
<stop offset="1" stop-color="#D8952A"/>
</linearGradient>
<linearGradient id="paint13_linear_2072_48560" x1="30.5112" y1="32.3419" x2="38.2932" y2="36.5704" gradientUnits="userSpaceOnUse">
<stop stop-color="#00D0F7"/>
<stop offset="1" stop-color="#007EEE"/>
</linearGradient>
<linearGradient id="paint14_linear_2072_48560" x1="34.2265" y1="28.3075" x2="40.025" y2="31.1453" gradientUnits="userSpaceOnUse">
<stop stop-color="#FFD2A1"/>
<stop offset="1" stop-color="#D8952A"/>
</linearGradient>
<linearGradient id="paint15_linear_2072_48560" x1="28.8075" y1="34.7877" x2="25.9063" y2="35.1466" gradientUnits="userSpaceOnUse">
<stop stop-color="#303030"/>
<stop offset="1" stop-color="#727272"/>
</linearGradient>
<linearGradient id="paint16_linear_2072_48560" x1="27.3655" y1="20.6111" x2="27.7068" y2="12.5634" gradientUnits="userSpaceOnUse">
<stop stop-color="#8C610A"/>
<stop offset="0.27" stop-color="#E4A663"/>
<stop offset="0.73" stop-color="#FFEFAB"/>
<stop offset="1" stop-color="#F8B143"/>
</linearGradient>
<linearGradient id="paint17_linear_2072_48560" x1="27.9745" y1="11.1663" x2="27.2107" y2="21.5495" gradientUnits="userSpaceOnUse">
<stop stop-color="#8C610A"/>
<stop offset="0.27" stop-color="#E4A663"/>
<stop offset="0.73" stop-color="#FFEFAB"/>
<stop offset="1" stop-color="#F8B143"/>
</linearGradient>
<linearGradient id="paint18_linear_2072_48560" x1="29.7228" y1="19.5471" x2="29.661" y2="11.1111" gradientUnits="userSpaceOnUse">
<stop stop-color="#8C610A"/>
<stop offset="0.27" stop-color="#E4A663"/>
<stop offset="0.73" stop-color="#FFEFAB"/>
<stop offset="1" stop-color="#F8B143"/>
</linearGradient>
<linearGradient id="paint19_linear_2072_48560" x1="10.676" y1="4.03434" x2="35.8095" y2="20.8301" gradientUnits="userSpaceOnUse">
<stop stop-color="#8C610A"/>
<stop offset="0.27" stop-color="#E4A663"/>
<stop offset="0.73" stop-color="#FFEFAB"/>
<stop offset="1" stop-color="#F8B143"/>
</linearGradient>
<linearGradient id="paint20_linear_2072_48560" x1="25.8345" y1="2.35343" x2="22.6732" y2="9.85173" gradientUnits="userSpaceOnUse">
<stop stop-color="#82FB7C"/>
<stop offset="1" stop-color="#44CC99"/>
</linearGradient>
<linearGradient id="paint21_linear_2072_48560" x1="18.5147" y1="7.66075" x2="28.2508" y2="3.91674" gradientUnits="userSpaceOnUse">
<stop stop-color="#82FB7C"/>
<stop offset="1" stop-color="#44CC99"/>
</linearGradient>
</defs>
</svg>
