<svg width="32" height="30" viewBox="0 0 32 30" fill="none" xmlns="http://www.w3.org/2000/svg">
<path d="M7.00923 7.8183H3.91821L4.30236 4.93872H6.62508L7.00923 7.8183Z" fill="#FF8A50"/>
<path opacity="0.2" d="M6.83504 6.52145C6.42856 6.74479 5.96103 6.86837 5.46373 6.86837C4.96494 6.86837 4.49742 6.74181 4.09094 6.52145L4.30237 4.93872H6.6251L6.83504 6.52145Z" fill="#5E452C"/>
<path d="M5.46345 5.75917C7.05379 5.75917 8.34303 4.46993 8.34303 2.87958C8.34303 1.28923 7.05379 0 5.46345 0C3.8731 0 2.58386 1.28923 2.58386 2.87958C2.58386 4.46993 3.8731 5.75917 5.46345 5.75917Z" fill="#FF8A50"/>
<path d="M6.19354 4.9437C7.33295 4.54009 7.92943 3.28921 7.52581 2.1498C7.1222 1.01039 5.87132 0.413909 4.73191 0.817527C3.5925 1.22114 2.99602 2.47202 3.39964 3.61143C3.80325 4.75084 5.05413 5.34732 6.19354 4.9437Z" fill="#FFD05C"/>
<g opacity="0.3">
<path d="M7.29321 2.753C7.2545 2.21848 6.98203 1.72564 6.57853 1.40999C6.17354 1.09136 5.63752 0.945447 5.10598 1.02436C4.5923 1.1003 4.12626 1.40553 3.84039 1.84774C3.55005 2.28995 3.45178 2.86914 3.60961 3.426C3.73617 3.8831 4.0548 4.27915 4.46425 4.50845C4.87222 4.74072 5.36058 4.81219 5.80428 4.71392C6.25096 4.62012 6.65297 4.36998 6.92842 4.02603C7.20685 3.68358 7.37361 3.25179 7.39148 2.8066C7.39297 2.78576 7.38552 2.76789 7.37361 2.76789C7.36319 2.76789 7.35425 2.78427 7.35277 2.80511C7.34532 2.98527 7.30661 3.16246 7.25003 3.33368C7.19047 3.50342 7.10709 3.66125 7.00733 3.80865C6.9046 3.95457 6.784 4.08559 6.64851 4.20322C6.51153 4.31786 6.35816 4.41613 6.19438 4.49653C5.72984 4.71987 5.17595 4.73476 4.6995 4.53227C4.22304 4.33275 3.84039 3.92032 3.68554 3.42004C3.52027 2.88998 3.60216 2.32419 3.87761 1.88794C4.15158 1.45168 4.60868 1.14943 5.11044 1.07647C5.80279 0.976713 6.5011 1.23132 6.92395 1.7986C7.02669 1.93856 7.10561 2.09192 7.16814 2.25421C7.2277 2.41651 7.26343 2.58773 7.28279 2.76342C7.28428 2.76789 7.28725 2.76938 7.28874 2.76789C7.29321 2.76491 7.2947 2.75896 7.29321 2.753Z" fill="#5E452C"/>
<path d="M7.03748 2.75451C6.99877 2.29443 6.76351 1.87753 6.41659 1.60804C6.06967 1.33854 5.61555 1.21198 5.15845 1.27451C4.71922 1.33556 4.31423 1.59315 4.0626 1.97282C3.808 2.35101 3.71717 2.85427 3.84969 3.34115C3.9554 3.74018 4.23383 4.08859 4.59117 4.2881C4.94703 4.4906 5.37435 4.55164 5.75998 4.46231C6.1471 4.37893 6.49551 4.16005 6.73374 3.85929C6.97345 3.56002 7.11639 3.18778 7.13426 2.80215C7.13575 2.78429 7.1283 2.76791 7.11639 2.76791C7.10597 2.76791 7.09704 2.78131 7.09555 2.80066C7.06279 3.43197 6.66227 3.98585 6.09499 4.25981C5.69596 4.45486 5.21503 4.47273 4.8026 4.29704C4.39017 4.12581 4.05665 3.76549 3.92711 3.33221C3.78716 2.87362 3.8616 2.38376 4.10281 2.01153C4.34103 1.6393 4.73709 1.3847 5.16441 1.32812C5.75551 1.25069 6.34364 1.46063 6.7114 1.94155C6.79925 2.06067 6.86923 2.19169 6.92283 2.32867C6.97495 2.46714 7.0077 2.61306 7.02705 2.76344C7.02854 2.76791 7.03152 2.7694 7.0345 2.76791C7.03748 2.76493 7.03897 2.75897 7.03748 2.75451Z" fill="#5E452C"/>
<path d="M6.78147 2.75603C6.74276 2.3704 6.54325 2.02943 6.25588 1.80609C5.96703 1.58424 5.5948 1.47853 5.21214 1.52469C4.84587 1.57084 4.50342 1.78078 4.28752 2.09792C4.06865 2.41209 3.98676 2.83941 4.09396 3.25482C4.17883 3.59578 4.41706 3.89506 4.72378 4.0648C5.02901 4.23602 5.39231 4.28664 5.72136 4.20773C6.05041 4.13328 6.34373 3.94568 6.54324 3.68959C6.74425 3.43498 6.86486 3.12231 6.88123 2.79474C6.88272 2.77985 6.87527 2.76645 6.86336 2.76645C6.85294 2.76645 6.84401 2.77836 6.84252 2.79474C6.81125 3.32629 6.47327 3.78637 5.99979 4.02311C5.66776 4.19135 5.2583 4.20922 4.90841 4.06182C4.55851 3.91888 4.27561 3.61067 4.1699 3.24291C4.05525 2.8543 4.12374 2.44187 4.32921 2.13366C4.5332 1.82396 4.86672 1.617 5.21959 1.5768C5.46675 1.55 5.70498 1.57829 5.92534 1.66167C6.14421 1.74505 6.34522 1.8865 6.50007 2.08304C6.57452 2.1813 6.63258 2.28851 6.68023 2.40167C6.7249 2.51631 6.75318 2.63691 6.77254 2.76347C6.77403 2.76645 6.77701 2.76794 6.77998 2.76645C6.78147 2.76496 6.78296 2.7605 6.78147 2.75603Z" fill="#5E452C"/>
<path d="M6.52517 2.75894C6.48646 2.44924 6.32268 2.18272 6.09338 2.00554C5.8626 1.83133 5.57226 1.74646 5.26554 1.77624C4.97371 1.80602 4.6923 1.96981 4.51066 2.22441C4.32752 2.47604 4.25307 2.82594 4.33496 3.16988C4.40048 3.45277 4.59701 3.7044 4.85162 3.84436C5.10474 3.98581 5.40699 4.02452 5.67797 3.95603C5.94747 3.89201 6.18719 3.73418 6.34948 3.52276C6.51177 3.31133 6.60855 3.05821 6.62493 2.79169C6.62642 2.77829 6.61898 2.76787 6.60707 2.76787C6.59664 2.76787 6.58771 2.7768 6.58622 2.7902C6.55644 3.22199 6.28099 3.58827 5.90131 3.78629C5.63479 3.92774 5.29681 3.9471 5.01242 3.82798C4.72655 3.71185 4.49279 3.45724 4.41239 3.15648C4.32454 2.83934 4.38558 2.50284 4.55532 2.25866C4.72506 2.01149 4.99605 1.85367 5.27597 1.82836C5.4725 1.81347 5.66011 1.8358 5.83133 1.89982C6.00405 1.96385 6.16336 2.07254 6.28843 2.22739C6.34799 2.30481 6.39563 2.38819 6.43584 2.47753C6.47306 2.56835 6.49837 2.66364 6.51773 2.76489C6.51922 2.76787 6.52219 2.76936 6.52517 2.76787C6.52517 2.76489 6.52666 2.76191 6.52517 2.75894Z" fill="#5E452C"/>
</g>
<path d="M27.4385 7.8183H24.349L24.7331 4.93872H27.0544L27.4385 7.8183Z" fill="#FF8A50"/>
<path opacity="0.2" d="M27.2653 6.52145C26.8589 6.74479 26.3913 6.86837 25.894 6.86837C25.3952 6.86837 24.9277 6.74181 24.5212 6.52145L24.7327 4.93872H27.0554L27.2653 6.52145Z" fill="#5E452C"/>
<path d="M25.893 5.75917C27.4834 5.75917 28.7726 4.46993 28.7726 2.87958C28.7726 1.28923 27.4834 0 25.893 0C24.3027 0 23.0134 1.28923 23.0134 2.87958C23.0134 4.46993 24.3027 5.75917 25.893 5.75917Z" fill="#FF8A50"/>
<path d="M28.0308 3.36458C28.2973 2.18551 27.5574 1.01372 26.3784 0.747305C25.1993 0.480886 24.0275 1.22073 23.7611 2.39979C23.4947 3.57885 24.2345 4.75064 25.4136 5.01706C26.5926 5.28348 27.7644 4.54364 28.0308 3.36458Z" fill="#FFD05C"/>
<g opacity="0.3">
<path d="M27.7227 2.753C27.6839 2.21848 27.4115 1.72564 27.008 1.40999C26.603 1.09136 26.067 0.945447 25.5354 1.02436C25.0217 1.1003 24.5557 1.40553 24.2698 1.84774C23.9795 2.28995 23.8812 2.86914 24.0391 3.426C24.1656 3.8831 24.4842 4.27915 24.8937 4.50845C25.3017 4.74072 25.79 4.81219 26.2337 4.71392C26.6804 4.62012 27.0824 4.36998 27.3579 4.02603C27.6363 3.68358 27.8031 3.25179 27.8209 2.8066C27.8224 2.78576 27.815 2.76789 27.8031 2.76789C27.7926 2.76789 27.7837 2.78427 27.7822 2.80511C27.7748 2.98527 27.7361 3.16246 27.6795 3.33368C27.6199 3.50342 27.5365 3.66125 27.4368 3.80865C27.334 3.95457 27.2134 4.08559 27.078 4.20322C26.941 4.31786 26.7876 4.41613 26.6238 4.49653C26.1593 4.71987 25.6054 4.73476 25.1289 4.53227C24.6525 4.33275 24.2698 3.92032 24.115 3.42004C23.9497 2.88998 24.0316 2.32419 24.3071 1.88794C24.581 1.45168 25.0381 1.14943 25.5399 1.07647C26.2322 0.976713 26.9305 1.23132 27.3534 1.7986C27.4561 1.93856 27.535 2.09192 27.5976 2.25421C27.6571 2.41651 27.6929 2.58773 27.7122 2.76342C27.7137 2.76789 27.7167 2.76938 27.7182 2.76789C27.7241 2.76491 27.7241 2.75896 27.7227 2.753Z" fill="#5E452C"/>
<path d="M27.4668 2.75451C27.4281 2.29443 27.1928 1.87753 26.8459 1.60804C26.499 1.33854 26.0449 1.21198 25.5878 1.27451C25.1485 1.33556 24.7436 1.59315 24.4919 1.97282C24.2373 2.35101 24.1465 2.85427 24.279 3.34115C24.3847 3.74018 24.6632 4.08859 25.0205 4.2881C25.3763 4.4906 25.8037 4.55164 26.1893 4.46231C26.5764 4.37893 26.9248 4.16005 27.1631 3.85929C27.4028 3.56002 27.5457 3.18778 27.5636 2.80215C27.5651 2.78429 27.5576 2.76791 27.5457 2.76791C27.5353 2.76791 27.5264 2.78131 27.5249 2.80066C27.4921 3.43197 27.0916 3.98585 26.5243 4.25981C26.1253 4.45486 25.6444 4.47273 25.2319 4.29704C24.8195 4.12581 24.486 3.76549 24.3564 3.33221C24.2165 2.87362 24.2909 2.38376 24.5321 2.01153C24.7704 1.6393 25.1664 1.3847 25.5937 1.32812C26.1848 1.25069 26.773 1.46063 27.1407 1.94155C27.2286 2.06067 27.2986 2.19169 27.3522 2.32867C27.4043 2.46714 27.437 2.61306 27.4564 2.76344C27.4579 2.76791 27.4608 2.7694 27.4638 2.76791C27.4668 2.76493 27.4683 2.75897 27.4668 2.75451Z" fill="#5E452C"/>
<path d="M27.2108 2.75603C27.1721 2.3704 26.9726 2.02943 26.6852 1.80609C26.3964 1.58424 26.0241 1.47853 25.6415 1.52469C25.2752 1.57084 24.9327 1.78078 24.7168 2.09792C24.498 2.41209 24.4161 2.83941 24.5233 3.25482C24.6082 3.59578 24.8464 3.89506 25.1531 4.0648C25.4583 4.23602 25.8216 4.28664 26.1507 4.20773C26.4797 4.13328 26.7731 3.94568 26.9726 3.68959C27.1736 3.43498 27.2942 3.12231 27.3106 2.79474C27.312 2.77985 27.3046 2.76645 27.2927 2.76645C27.2823 2.76645 27.2733 2.77836 27.2718 2.79474C27.2406 3.32629 26.9026 3.78637 26.4291 4.02311C26.0971 4.19135 25.6876 4.20922 25.3377 4.06182C24.9878 3.91888 24.7049 3.61067 24.5992 3.24291C24.4846 2.8543 24.5531 2.44187 24.7585 2.13366C24.9625 1.82396 25.296 1.617 25.6489 1.5768C25.8961 1.55 26.1343 1.57829 26.3547 1.66167C26.5735 1.74505 26.7745 1.8865 26.9294 2.08304C27.0038 2.1813 27.0619 2.28851 27.1095 2.40167C27.1542 2.51631 27.1825 2.63691 27.2019 2.76347C27.2034 2.76645 27.2063 2.76794 27.2093 2.76645C27.2108 2.76496 27.2123 2.7605 27.2108 2.75603Z" fill="#5E452C"/>
<path d="M26.9549 2.75894C26.9161 2.44924 26.7524 2.18272 26.5231 2.00554C26.2923 1.83133 26.0019 1.74646 25.6952 1.77624C25.4034 1.80602 25.122 1.96981 24.9403 2.22441C24.7572 2.47604 24.6828 2.82594 24.7647 3.16988C24.8302 3.45277 25.0267 3.7044 25.2813 3.84436C25.5344 3.98581 25.8367 4.02452 26.1077 3.95603C26.3786 3.89201 26.6169 3.73418 26.7792 3.52276C26.9415 3.31133 27.0382 3.05821 27.0546 2.79169C27.0561 2.77829 27.0487 2.76787 27.0368 2.76787C27.0263 2.76787 27.0174 2.7768 27.0159 2.7902C26.9861 3.22199 26.7107 3.58827 26.331 3.78629C26.0645 3.92774 25.7265 3.9471 25.4421 3.82798C25.1562 3.71185 24.9225 3.45724 24.8421 3.15648C24.7542 2.83934 24.8153 2.50284 24.985 2.25866C25.1548 2.01149 25.4257 1.85367 25.7057 1.82836C25.9022 1.81347 26.0898 1.8358 26.261 1.89982C26.4337 1.96385 26.5931 2.07254 26.7181 2.22739C26.7777 2.30481 26.8253 2.38819 26.8655 2.47753C26.9028 2.56835 26.9281 2.66364 26.9474 2.76489C26.9489 2.76787 26.9519 2.76936 26.9549 2.76787C26.9549 2.76489 26.9563 2.76191 26.9549 2.75894Z" fill="#5E452C"/>
</g>
<path d="M30.7971 21.1205H4.81238V24.8741H30.7971V21.1205Z" fill="#FF8A50"/>
<path d="M10.1534 21.1205L8.2669 24.8741H4.91235L6.79733 21.1205H10.1534Z" fill="white"/>
<path d="M17.0324 21.1205L15.1474 24.8741H11.7899L13.6764 21.1205H17.0324Z" fill="white"/>
<path d="M23.9096 21.1205L22.0246 24.8741H18.6686L20.5551 21.1205H23.9096Z" fill="white"/>
<path d="M30.7883 21.1205L28.9033 24.8741H25.5458L27.4322 21.1205H30.7883Z" fill="white"/>
<path d="M28.1024 29.6371H32.0004L29.1133 11.9293H25.2153L28.1024 29.6371Z" fill="white"/>
<path d="M7.31552 29.6371H11.2135L8.32501 11.9293H4.427L7.31552 29.6371Z" fill="white"/>
<path opacity="0.2" d="M28.1024 29.6371H32.0004L29.1133 11.9293H25.2153L28.1024 29.6371Z" fill="#5E452C"/>
<path opacity="0.2" d="M7.31552 29.6371H11.2135L8.32501 11.9293H4.427L7.31552 29.6371Z" fill="#5E452C"/>
<path d="M6.78528 11.9293L6.54258 13.4212L6.28202 15.0233L3.89825 29.6371H0.000244141L2.38401 15.0233L2.64458 13.4212L2.88727 11.9293H6.78528Z" fill="white"/>
<path opacity="0.2" d="M6.22147 11.9293C6.01599 13.4093 5.79563 14.8878 5.5723 16.3648L4.88441 20.7944L4.16377 25.218L3.79154 27.4276L3.40442 29.6356L3.72156 27.4171L4.05359 25.2001L4.74147 20.7706L5.46212 16.347C5.70779 14.8744 5.95644 13.4004 6.22147 11.9293Z" fill="#5E452C"/>
<path d="M27.5737 11.9293L27.331 13.4212L27.069 15.0233L24.6852 29.6371H20.7887L23.171 15.0233L23.433 13.4212L23.6757 11.9293H27.5737Z" fill="white"/>
<path opacity="0.2" d="M26.9958 11.9293C26.7903 13.4093 26.5699 14.8878 26.3466 16.3648L25.6587 20.7944L24.9381 25.218L24.5658 27.4276L24.1787 29.6356L24.4959 27.4171L24.8279 25.2001L25.5158 20.7706L26.2364 16.347C26.4836 14.8744 26.7322 13.4004 26.9958 11.9293Z" fill="#5E452C"/>
<path d="M31.0386 6.70764H0.386108V13.4197H31.0386V6.70764Z" fill="#FF8A50"/>
<path d="M6.68607 6.70764L4.46162 13.4212H0.502563L2.72702 6.70764H6.68607Z" fill="white"/>
<path d="M14.8008 6.70776L12.5764 13.4213H8.61584L10.8403 6.70776H14.8008Z" fill="white"/>
<path d="M22.9143 6.70776L20.6899 13.4213H16.7308L18.9553 6.70776H22.9143Z" fill="white"/>
<path d="M31.0289 6.70776L28.8044 13.4213H24.8439L27.0683 6.70776H31.0289Z" fill="white"/>
<path d="M26.3709 21.7935H0.386108V25.547H26.3709V21.7935Z" fill="#FF8A50"/>
<path d="M5.72664 21.7935L3.84017 25.547H0.484131L2.3706 21.7935H5.72664Z" fill="white"/>
<path d="M12.6057 21.7935L10.7192 25.547H7.36316L9.24814 21.7935H12.6057Z" fill="white"/>
<path d="M19.4828 21.7935L17.5964 25.547H14.2418L16.1268 21.7935H19.4828Z" fill="white"/>
<path d="M26.362 21.7935L24.477 25.547H21.1195L23.006 21.7935H26.362Z" fill="white"/>
<path opacity="0.2" d="M6.54321 13.4211L6.28265 15.0232H2.38464L2.64521 13.4211H6.54321Z" fill="#5E452C"/>
<path opacity="0.2" d="M27.3312 13.4211H23.4332L23.1711 15.0232H27.0692L27.3312 13.4211Z" fill="#5E452C"/>
</svg>
