<svg xmlns="http://www.w3.org/2000/svg" width="1240" height="1240"><path d="M304 36.001C186.665 42.728 84.858 121.578 49.103 233.422c-7.845 24.538-11.518 45.236-13.147 74.078-1.614 28.582-.761 632.804.91 645 7.378 53.839 25.315 98.256 56.537 140 11.783 15.755 39.236 43.249 54.597 54.679 44.179 32.872 91.895 51.453 145.856 56.796 14.343 1.42 638.992 1.416 653.288-.004 137.035-13.614 244.504-121.574 256.848-258.023.815-9.013 1.032-101.017.786-333.448-.312-293.997-.481-321.846-2.008-331.061-11.284-68.08-37.899-120.242-84.428-165.474-44.833-43.583-97.902-69.185-163.007-78.641-10.972-1.594-34.689-1.731-325.335-1.879-172.425-.088-319.125.162-326 .556m290.5 96.694c-99.38 5.253-196.049 41.418-274.415 102.665C228.079 307.267 164.38 410.303 141.642 524c-9.972 49.867-12.105 103.756-6.095 154C150.558 803.482 214.078 918.885 312 998.58c78.084 63.549 171.14 100.589 272.395 108.422 16.685 1.291 55.728 1.281 72.21-.019 151.334-11.933 286.065-90.795 369.849-216.483 46.753-70.137 73.814-148.735 80.529-233.895 2.029-25.729 1.125-67.338-2.044-94.105-17.464-147.508-101.611-279.076-228.934-357.952-19.768-12.246-54.742-29.758-76.505-38.308-65.063-25.56-136.109-37.186-205-33.545M377 339.38v7.379l18.75.523c20.983.585 26.54 1.687 37.534 7.447 8.006 4.195 16.568 12.26 19.525 18.394 4.784 9.923 4.691 5.068 4.691 245.877 0 177.855-.271 228.111-1.263 234-1.668 9.898-6.9 20.513-12.786 25.938-5.977 5.51-17.051 10.699-26.82 12.568-4.297.822-14.971 1.79-23.722 2.151l-15.909.656V909h511.909l.543-3.25c.298-1.788 5.039-45.775 10.535-97.75 5.495-51.975 10.242-95.962 10.548-97.75l.556-3.25h-16.875l-6.613 20.25c-31.24 95.664-66.418 135.426-130.103 147.058-11.391 2.081-14.741 2.192-66 2.192-39.186 0-56.012-.349-61.333-1.272-18.033-3.128-28.245-13.61-31.397-32.228-1-5.907-1.27-54.657-1.27-229.5 0-205.802.125-222.533 1.707-229.304 3.227-13.803 11.166-24.134 22.966-29.888 11.628-5.669 16.298-6.489 40.077-7.032l21.75-.496V332H377v7.38" fill="undefined" fill-rule="evenodd"/></svg>