<svg width="81" height="17" viewBox="0 0 81 17" fill="none" xmlns="http://www.w3.org/2000/svg">
<path fill-rule="evenodd" clip-rule="evenodd" d="M10.979 0.391136C12.6619 0.919393 14.1387 1.9581 15.2049 3.36327L11.5162 6.16191C11.0308 5.52218 10.3585 5.04928 9.59229 4.80878C8.82613 4.56828 8.00412 4.57209 7.24021 4.81967C6.4763 5.06726 5.80834 5.54635 5.3289 6.19055C5.04798 6.56802 4.83994 6.99121 4.71224 7.43846H0C0.182592 5.98911 0.736474 4.60596 1.6145 3.42618C2.66757 2.0112 4.13475 0.958866 5.81267 0.415052C7.49058 -0.128762 9.29612 -0.13712 10.979 0.391136ZM0.203249 10.6259C0.445164 11.5629 0.84671 12.4572 1.39579 13.2678C2.38496 14.7282 3.80394 15.8446 5.45604 16.4625C7.10814 17.0803 8.91152 17.1688 10.6162 16.7159C12.3209 16.2629 13.8424 15.2908 14.9699 13.9344L11.4093 10.9746C10.8959 11.5922 10.2032 12.0347 9.42713 12.241C8.65103 12.4472 7.83 12.4069 7.07785 12.1256C6.3257 11.8443 5.67967 11.336 5.22933 10.6712C5.21916 10.6562 5.20911 10.6411 5.19917 10.6259H0.203249Z" fill="#231300"/>
<rect x="16.9999" width="4.24999" height="17" fill="#231300"/>
<path d="M27.6249 0L22.3124 8.49998L27.6249 17H32.9373L27.0936 8.49998L32.9373 0H27.6249Z" fill="#231300"/>
<path d="M38.1832 0H33.9999L38.7144 12.75L37.1207 17H41.3707L48.8082 0H44.6248L40.8394 7.96873L38.1832 0Z" fill="#231300"/>
<path d="M53.5894 0L45.0894 17H49.8707L53.5894 9.03123L57.3081 17H62.0894L53.5894 0Z" fill="#231300"/>
<rect x="76.4998" width="4.24999" height="17" fill="#231300"/>
<path fill-rule="evenodd" clip-rule="evenodd" d="M66.9374 0H62.6874V6.48124C62.6873 6.48125 62.6873 6.48125 62.6873 6.48125V9.56247H62.6874H66.9374H69.0623C70.2359 9.56247 71.1873 10.5139 71.1873 11.6875C71.1873 12.8611 70.2359 13.8125 69.0623 13.8125H62.6873V16.8937C63.0306 16.9634 63.3859 17 63.7498 17H70.1248C73.0588 17 75.4373 14.6215 75.4373 11.6875C75.4373 8.75346 73.0588 6.37498 70.1248 6.37498H66.9374V0Z" fill="#231300"/>
</svg>
