<svg width="28" height="28" viewBox="0 0 28 28" fill="none" xmlns="http://www.w3.org/2000/svg">
<path fill-rule="evenodd" clip-rule="evenodd" d="M12.6948 4.33612C8.01234 4.33612 4.21646 8.15267 4.21646 12.8606C4.21646 17.5686 8.01234 21.3852 12.6948 21.3852C17.3773 21.3852 21.1731 17.5686 21.1731 12.8606C21.1731 8.15267 17.3773 4.33612 12.6948 4.33612ZM2.23877 12.8606C2.23877 7.05448 6.92009 2.34766 12.6948 2.34766C18.4695 2.34766 23.1508 7.05448 23.1508 12.8606C23.1508 18.6668 18.4695 23.3736 12.6948 23.3736C6.92009 23.3736 2.23877 18.6668 2.23877 12.8606Z" fill="#282828"/>
<path fill-rule="evenodd" clip-rule="evenodd" d="M19.5752 19.6424C19.9609 19.2536 20.587 19.2528 20.9736 19.6406L25.2816 23.9828C25.6682 24.3706 25.6691 25.0001 25.2834 25.3889C24.8977 25.7776 24.2716 25.7785 23.885 25.3907L19.577 21.0484C19.1904 20.6607 19.1895 20.0312 19.5752 19.6424Z" fill="#282828"/>
</svg>
