<svg width="24" height="24" fill="none" xmlns="http://www.w3.org/2000/svg"><path d="M1.5 15.91v6.59h12.502l4.522-4.522a2.25 2.25 0 0 0-3.177-3.186l1.056-1.056a2.25 2.25 0 0 0-3.182-3.182l-1.061 1.06a2.25 2.25 0 1 0-3.182-3.182L1.5 15.91Z" fill="#E3F3F3"/><path d="M1.5 22.5h.375v-.07l11.61-11.611a1.875 1.875 0 0 1 2.652 0c.04.04.026.001.002-.06-.034-.093-.09-.239-.014-.259v-.375c-1.031-.868-2.199-.807-3.17.164L1.5 21.744v.756Zm5.763 0h.905l7.44-7.439a1.875 1.875 0 0 1 2.65 0 .375.375 0 1 0 .531-.53 2.625 2.625 0 0 0-3.712 0l-7.704 7.704a.374.374 0 0 0-.11.265Z" fill="#C2E0E3"/><path d="M20.317 3.756a.375.375 0 0 1 .302.436l-.5 2.752c.21.134.37.329.45.556h-2.254c.15-.421.573-.73 1.076-.749l.49-2.693a.375.375 0 0 1 .436-.302Z" fill="#5DB5BE"/><path d="M18.709 1.828a.375.375 0 0 1 .372-.328h2.994c.226 0 .4.198.372.422l-.24 1.921a.75.75 0 0 1-.744.657H18.8a.375.375 0 0 1-.372-.422l.28-2.25ZM18.315 7.5a1.01 1.01 0 0 0-.058.375V8.93c0 .188-.107.377-.21.515-.08.108-.048.268.085.288.896.134 2.496-.586 2.496-1.894a1.012 1.012 0 0 0-.058-.34h-2.255Zm-9.337.932a1.5 1.5 0 0 0 2.121 2.121l1.591-1.59a2.25 2.25 0 0 0 0-3.183.75.75 0 0 0-1.06 0L8.978 8.432Zm3.182 5.303a1.5 1.5 0 0 1 0-2.121l2.652-2.652a.75.75 0 0 1 1.06 0 2.25 2.25 0 0 1 0 3.182l-1.59 1.591a1.5 1.5 0 0 1-2.122 0Zm3.182 1.061a1.5 1.5 0 1 0 2.121 2.121l1.591-1.59a2.25 2.25 0 0 0 0-3.183.75.75 0 0 0-1.06 0l-2.652 2.652Z" fill="#5DB5BE"/><path d="M19.943 1.977a.28.28 0 0 1 .205.341l-.375 1.5a.281.281 0 0 1-.546-.136l.375-1.5a.281.281 0 0 1 .341-.205Z" fill="#F3EEF8"/></svg>