<svg width="29" height="28" viewBox="0 0 29 28" fill="none" xmlns="http://www.w3.org/2000/svg">
<path fill-rule="evenodd" clip-rule="evenodd" d="M10.0556 5.9H7.83333C7.04173 5.9 6.4 6.54173 6.4 7.33333V9.55555C6.4 10.3472 7.04173 10.9889 7.83333 10.9889H10.0556C10.8472 10.9889 11.4889 10.3472 11.4889 9.55555V7.33333C11.4889 6.54173 10.8472 5.9 10.0556 5.9ZM7.83333 4C5.99238 4 4.5 5.49239 4.5 7.33333V9.55555C4.5 11.3965 5.99239 12.8889 7.83333 12.8889H10.0556C11.8965 12.8889 13.3889 11.3965 13.3889 9.55555V7.33333C13.3889 5.49238 11.8965 4 10.0556 4H7.83333Z" fill="#282828"/>
<path fill-rule="evenodd" clip-rule="evenodd" d="M10.0556 17.0114H7.83333C7.04173 17.0114 6.4 17.6531 6.4 18.4448V20.667C6.4 21.4586 7.04173 22.1003 7.83333 22.1003H10.0556C10.8472 22.1003 11.4889 21.4586 11.4889 20.667V18.4448C11.4889 17.6531 10.8472 17.0114 10.0556 17.0114ZM7.83333 15.1114C5.99238 15.1114 4.5 16.6038 4.5 18.4448V20.667C4.5 22.5079 5.99239 24.0003 7.83333 24.0003H10.0556C11.8965 24.0003 13.3889 22.5079 13.3889 20.667V18.4448C13.3889 16.6038 11.8965 15.1114 10.0556 15.1114H7.83333Z" fill="#282828"/>
<path fill-rule="evenodd" clip-rule="evenodd" d="M21.1667 5.9H18.9444C18.1528 5.9 17.5111 6.54173 17.5111 7.33333V9.55555C17.5111 10.3472 18.1528 10.9889 18.9444 10.9889H21.1667C21.9583 10.9889 22.6 10.3472 22.6 9.55555V7.33333C22.6 6.54173 21.9583 5.9 21.1667 5.9ZM18.9444 4C17.1035 4 15.6111 5.49239 15.6111 7.33333V9.55555C15.6111 11.3965 17.1035 12.8889 18.9444 12.8889H21.1667C23.0076 12.8889 24.5 11.3965 24.5 9.55555V7.33333C24.5 5.49238 23.0076 4 21.1667 4H18.9444Z" fill="#282828"/>
<path fill-rule="evenodd" clip-rule="evenodd" d="M21.1667 17.0114H18.9444C18.1528 17.0114 17.5111 17.6531 17.5111 18.4448V20.667C17.5111 21.4586 18.1528 22.1003 18.9444 22.1003H21.1667C21.9583 22.1003 22.6 21.4586 22.6 20.667V18.4448C22.6 17.6531 21.9583 17.0114 21.1667 17.0114ZM18.9444 15.1114C17.1035 15.1114 15.6111 16.6038 15.6111 18.4448V20.667C15.6111 22.5079 17.1035 24.0003 18.9444 24.0003H21.1667C23.0076 24.0003 24.5 22.5079 24.5 20.667V18.4448C24.5 16.6038 23.0076 15.1114 21.1667 15.1114H18.9444Z" fill="#282828"/>
</svg>
