<svg width="18" height="20" fill="none" xmlns="http://www.w3.org/2000/svg"><path d="M17.438 17.656c0 .432-.35.782-.782.782h-.781v.78a.781.781 0 0 1-1.563 0v-.78h-.78a.781.781 0 0 1 0-1.563h.78v-.781a.781.781 0 0 1 1.563 0v.781h.781c.432 0 .782.35.782.781Zm0-12.187v7.5a.781.781 0 0 1-1.563 0V6.25h-1.563v2.344a.781.781 0 0 1-1.562 0V6.25h-7.5v2.344a.781.781 0 1 1-1.563 0V6.25H2.125v12.188h8.281a.781.781 0 0 1 0 1.562H1.344a.781.781 0 0 1-.782-.781V5.469c0-.432.35-.782.782-.782h2.38A5.32 5.32 0 0 1 9 0a5.32 5.32 0 0 1 5.275 4.688h2.381c.432 0 .782.35.782.78Zm-4.74-.782A3.756 3.756 0 0 0 9 1.563a3.756 3.756 0 0 0-3.698 3.125h7.396Z" fill="#fff"/></svg>