<svg width="26" height="24" fill="none" xmlns="http://www.w3.org/2000/svg"><path d="m16.893 7.486.117.235.26.038 7.504 1.08a.436.436 0 0 1 .377.492l-.001.006a.433.433 0 0 1-.128.249l-5.43 5.246-.19.184.044.26 1.283 7.41a.437.437 0 0 1-.363.503.447.447 0 0 1-.282-.043l-.003-.002-6.713-3.498-.231-.12-.232.12-6.713 3.498H6.19a.452.452 0 0 1-.472-.032.438.438 0 0 1-.175-.425v-.001l1.283-7.41.045-.26-.19-.184L1.25 9.585a.435.435 0 0 1 .246-.745l7.507-1.081.26-.038.116-.235L12.734.748l.001-.001a.454.454 0 0 1 .602-.2.436.436 0 0 1 .2.198l3.356 6.741Z" stroke="#FA882E"/></svg>