<svg width="95" height="18" fill="none" xmlns="http://www.w3.org/2000/svg"><path d="M2.782 9.068v6.12h.597c.496 0 .625-.02.713-.122.102-.116.115-.62.129-5.529l.02-5.399 4.56-.02 4.567-.014.014 5.413.02 5.413.163.129c.129.102.264.129.726.129h.57V2.948H2.782v6.12Zm19.408 0v6.12h1.472l1.18-1.346c.645-.735 2.667-3.047 4.486-5.134 1.825-2.081 3.359-3.788 3.413-3.788.088 0 .102.632.102 4.991v4.998l.176.136c.15.116.279.143.713.143h.536V2.948h-.726l-.733.007-.679.795c-.373.436-1.669 1.938-2.884 3.346-1.214 1.408-2.924 3.386-3.8 4.406-.875 1.014-1.628 1.85-1.676 1.85-.067 0-.088-1-.088-4.93 0-5.29.007-5.222-.332-5.406-.075-.034-.367-.068-.645-.068h-.516v6.12Zm23.817-4.175c-.522 1.074-.95 1.958-.95 1.965 0 .014-.414.87-.916 1.904-.502 1.04-.916 1.89-.916 1.904 0 .007-.387.81-.855 1.775-.468.972-.957 1.986-1.086 2.257l-.23.504.678-.027c.645-.02.685-.028.876-.225.122-.13.814-1.462 1.805-3.502a1424.57 1424.57 0 0 1 2.429-5.012c.454-.945.862-1.713.902-1.713.041-.007.265.415.502.925.238.516.665 1.428.95 2.026.285.598.794 1.666 1.127 2.373 2.26 4.801 2.307 4.896 2.524 5.025.163.096.326.116.821.103l.61-.02-1.282-2.653c-.699-1.462-2.022-4.196-2.931-6.086l-1.656-3.434-.726-.02-.733-.02-.943 1.95Zm14.997 4.175v6.12h.563c.923 0 .862.204.862-2.91V9.68h4.247l.774.898c2.911 3.359 3.834 4.386 4.03 4.495.184.095.36.115.91.102l.685-.02-1.77-2.007c-3.068-3.481-3.414-3.883-3.428-3.998-.013-.068 1.08-1.38 2.593-3.142l2.612-3.026-.59-.02c-.713-.027-1.005.047-1.29.326a201.24 201.24 0 0 0-2.368 2.686l-2.157 2.482h-4.248V3.343l-.197-.198c-.183-.183-.238-.197-.713-.197h-.515v6.12Zm19.542 0v6.12h1.474l.773-.898c.428-.496 1.358-1.577 2.063-2.393 1.453-1.68 2.525-2.924 4.649-5.406.8-.932 1.5-1.7 1.547-1.7.04-.007.088.047.095.109l.027 4.916c.007 2.638.02 4.862.02 4.944.014.312.23.428.787.428h.51V2.948h-1.46l-1.764 2.054c-5.91 6.868-7.05 8.18-7.139 8.2-.074.02-.088-.788-.088-4.794 0-4.447-.007-4.834-.122-5.052-.156-.313-.36-.408-.91-.408h-.46v6.12Z" fill="#484848"/></svg>