<svg width="18" height="18" fill="none" xmlns="http://www.w3.org/2000/svg"><path d="M15.75 5.047h-.06c-3.968-.397-7.928-.547-11.85-.15l-1.53.15a.566.566 0 0 1-.12-1.125l1.53-.15c3.99-.405 8.032-.247 12.082.15.308.03.533.308.503.615a.556.556 0 0 1-.555.51Z" fill="#484848"/><path d="M6.375 4.29c-.03 0-.06 0-.098-.008a.565.565 0 0 1-.457-.644l.165-.983c.12-.72.285-1.717 2.032-1.717h1.965c1.755 0 1.92 1.034 2.033 1.725l.165.975a.557.557 0 0 1-.458.644.557.557 0 0 1-.645-.457l-.165-.975c-.105-.653-.127-.78-.922-.78H8.025c-.795 0-.81.105-.923.772l-.172.975a.563.563 0 0 1-.555.473Zm5.033 12.773H6.593c-2.618 0-2.723-1.448-2.805-2.618L3.3 6.893a.568.568 0 0 1 .525-.6.568.568 0 0 1 .6.525l.488 7.552c.082 1.14.112 1.568 1.68 1.568h4.815c1.575 0 1.605-.428 1.68-1.568l.487-7.552a.573.573 0 0 1 .6-.525.563.563 0 0 1 .525.6l-.487 7.552c-.083 1.17-.188 2.618-2.805 2.618Z" fill="#484848"/><path d="M10.245 12.938H7.747a.567.567 0 0 1-.562-.563c0-.307.255-.563.562-.563h2.498c.307 0 .562.256.562.563a.567.567 0 0 1-.562.563Zm.63-3h-3.75a.567.567 0 0 1-.563-.563c0-.307.255-.563.563-.563h3.75c.307 0 .563.256.563.563a.567.567 0 0 1-.563.563Z" fill="#484848"/></svg>