<svg width="18" height="18" fill="none" xmlns="http://www.w3.org/2000/svg"><path d="m6.285 9 1.807 1.815 3.623-3.63" stroke="#F5A05C" stroke-width="1.5" stroke-linecap="round" stroke-linejoin="round"/><path d="M8.063 1.838c.517-.443 1.364-.443 1.89 0l1.184 1.02c.226.195.646.352.945.352h1.275c.796 0 1.448.653 1.448 1.448v1.275c0 .292.158.72.353.945l1.02 1.185c.442.517.442 1.365 0 1.89l-1.02 1.185a1.662 1.662 0 0 0-.353.945v1.275c0 .795-.652 1.447-1.447 1.447h-1.276c-.292 0-.72.158-.945.353l-1.184 1.02c-.518.442-1.365.442-1.89 0l-1.186-1.02a1.662 1.662 0 0 0-.944-.353H4.635a1.453 1.453 0 0 1-1.447-1.447v-1.283c0-.292-.158-.712-.346-.937L1.83 9.945c-.435-.517-.435-1.357 0-1.875l1.012-1.192c.188-.225.345-.645.345-.938V4.65c0-.795.653-1.447 1.448-1.447h1.298c.292 0 .72-.158.945-.353l1.184-1.012Z" stroke="#F5A05C" stroke-width="1.5" stroke-linecap="round" stroke-linejoin="round"/></svg>