<svg width="24" height="24" fill="none" xmlns="http://www.w3.org/2000/svg"><path d="M0 11.52c0-5.432 0-8.144 1.68-9.84C3.384 0 6.096 0 11.52 0h.96c5.432 0 8.144 0 9.84 1.68C24 3.384 24 6.096 24 11.52v.96c0 5.432 0 8.144-1.68 9.84C20.616 24 17.904 24 12.48 24h-.96c-5.432 0-8.144 0-9.84-1.68C0 20.616 0 17.904 0 12.48v-.96Z" fill="#07F"/><path d="M12.767 17.288c-5.472 0-8.592-3.744-8.72-9.984h2.752c.088 4.576 2.104 6.512 3.704 6.912V7.304h2.584v3.944c1.576-.168 3.24-1.968 3.8-3.952h2.576a7.625 7.625 0 0 1-3.504 4.984 7.897 7.897 0 0 1 4.104 5.008h-2.84c-.608-1.896-2.128-3.368-4.136-3.568v3.568h-.32Z" fill="#fff"/></svg>