<svg width="69" height="69" fill="none" xmlns="http://www.w3.org/2000/svg"><circle cx="34.5" cy="34.5" r="34.5" fill="#E1F2F5"/><path d="M38.343 20.293a1 1 0 0 0-.707-.293H25a2 2 0 0 0-2 2v24a2 2 0 0 0 2 2h18a2 2 0 0 0 2-2V27.364a1 1 0 0 0-.293-.707l-6.364-6.364Z" fill="#B4ACBC"/><path d="M37.682 21H25a1 1 0 0 0-1 1v24a1 1 0 0 0 1 1h18a1 1 0 0 0 1-1V27.453L37.682 21Z" fill="#F3EEF8"/><path d="M27.5 30h13a.5.5 0 0 1 0 1h-13a.5.5 0 0 1 0-1Zm0 3a.5.5 0 0 0 0 1h13a.5.5 0 0 0 0-1h-13Zm-.5 3.5a.5.5 0 0 1 .5-.5h13a.5.5 0 0 1 0 1h-13a.5.5 0 0 1-.5-.5Zm.5 2.5a.5.5 0 0 0 0 1h8a.5.5 0 0 0 0-1h-8Z" fill="#998EA4"/><path d="M44 27.453h-4.61a1.707 1.707 0 0 1-1.708-1.707V21L44 27.453Z" fill="#CDC4D6"/></svg>